# quad torus 16x8 with UV coordinates
mtllib obj.mtl
v 0.98 0 0
v 0.886274 0.226274 0
v 0.66 0.32 0
v 0.433726 0.226274 0
v 0.34 0 0
v 0.433726 -0.226274 0
v 0.66 -0.32 0
v 0.886274 -0.226274 0
v 0.905402 0 0.37503
v 0.818811 0.226274 0.339162
v 0.60976 0.32 0.252571
v 0.40071 0.226274 0.16598
v 0.314119 0 0.130112
v 0.40071 -0.226274 0.16598
v 0.60976 -0.32 0.252571
v 0.818811 -0.226274 0.339162
v 0.692965 0 0.692965
v 0.62669 0.226274 0.62669
v 0.46669 0.32 0.46669
v 0.30669 0.226274 0.30669
v 0.240416 0 0.240416
v 0.30669 -0.226274 0.30669
v 0.46669 -0.32 0.46669
v 0.62669 -0.226274 0.62669
v 0.37503 0 0.905402
v 0.339162 0.226274 0.818811
v 0.252571 0.32 0.60976
v 0.16598 0.226274 0.40071
v 0.130112 0 0.314119
v 0.16598 -0.226274 0.40071
v 0.252571 -0.32 0.60976
v 0.339162 -0.226274 0.818811
v 0 0 0.98
v 0 0.226274 0.886274
v 0 0.32 0.66
v 0 0.226274 0.433726
v 0 0 0.34
v 0 -0.226274 0.433726
v 0 -0.32 0.66
v 0 -0.226274 0.886274
v -0.37503 0 0.905402
v -0.339162 0.226274 0.818811
v -0.252571 0.32 0.60976
v -0.16598 0.226274 0.40071
v -0.130112 0 0.314119
v -0.16598 -0.226274 0.40071
v -0.252571 -0.32 0.60976
v -0.339162 -0.226274 0.818811
v -0.692965 0 0.692965
v -0.62669 0.226274 0.62669
v -0.46669 0.32 0.46669
v -0.30669 0.226274 0.30669
v -0.240416 0 0.240416
v -0.30669 -0.226274 0.30669
v -0.46669 -0.32 0.46669
v -0.62669 -0.226274 0.62669
v -0.905402 0 0.37503
v -0.818811 0.226274 0.339162
v -0.60976 0.32 0.252571
v -0.40071 0.226274 0.16598
v -0.314119 0 0.130112
v -0.40071 -0.226274 0.16598
v -0.60976 -0.32 0.252571
v -0.818811 -0.226274 0.339162
v -0.98 0 0
v -0.886274 0.226274 0
v -0.66 0.32 0
v -0.433726 0.226274 0
v -0.34 0 0
v -0.433726 -0.226274 0
v -0.66 -0.32 0
v -0.886274 -0.226274 0
v -0.905402 0 -0.37503
v -0.818811 0.226274 -0.339162
v -0.60976 0.32 -0.252571
v -0.40071 0.226274 -0.16598
v -0.314119 0 -0.130112
v -0.40071 -0.226274 -0.16598
v -0.60976 -0.32 -0.252571
v -0.818811 -0.226274 -0.339162
v -0.692965 0 -0.692965
v -0.62669 0.226274 -0.62669
v -0.46669 0.32 -0.46669
v -0.30669 0.226274 -0.30669
v -0.240416 0 -0.240416
v -0.30669 -0.226274 -0.30669
v -0.46669 -0.32 -0.46669
v -0.62669 -0.226274 -0.62669
v -0.37503 0 -0.905402
v -0.339162 0.226274 -0.818811
v -0.252571 0.32 -0.60976
v -0.16598 0.226274 -0.40071
v -0.130112 0 -0.314119
v -0.16598 -0.226274 -0.40071
v -0.252571 -0.32 -0.60976
v -0.339162 -0.226274 -0.818811
v 0 0 -0.98
v 0 0.226274 -0.886274
v 0 0.32 -0.66
v 0 0.226274 -0.433726
v 0 0 -0.34
v 0 -0.226274 -0.433726
v 0 -0.32 -0.66
v 0 -0.226274 -0.886274
v 0.37503 0 -0.905402
v 0.339162 0.226274 -0.818811
v 0.252571 0.32 -0.60976
v 0.16598 0.226274 -0.40071
v 0.130112 0 -0.314119
v 0.16598 -0.226274 -0.40071
v 0.252571 -0.32 -0.60976
v 0.339162 -0.226274 -0.818811
v 0.692965 0 -0.692965
v 0.62669 0.226274 -0.62669
v 0.46669 0.32 -0.46669
v 0.30669 0.226274 -0.30669
v 0.240416 0 -0.240416
v 0.30669 -0.226274 -0.30669
v 0.46669 -0.32 -0.46669
v 0.62669 -0.226274 -0.62669
v 0.905402 0 -0.37503
v 0.818811 0.226274 -0.339162
v 0.60976 0.32 -0.252571
v 0.40071 0.226274 -0.16598
v 0.314119 0 -0.130112
v 0.40071 -0.226274 -0.16598
v 0.60976 -0.32 -0.252571
v 0.818811 -0.226274 -0.339162
vt 0 0
vt 0 0.125
vt 0 0.25
vt 0 0.375
vt 0 0.5
vt 0 0.625
vt 0 0.75
vt 0 0.875
vt 0 1
vt 0.0625 0
vt 0.0625 0.125
vt 0.0625 0.25
vt 0.0625 0.375
vt 0.0625 0.5
vt 0.0625 0.625
vt 0.0625 0.75
vt 0.0625 0.875
vt 0.0625 1
vt 0.125 0
vt 0.125 0.125
vt 0.125 0.25
vt 0.125 0.375
vt 0.125 0.5
vt 0.125 0.625
vt 0.125 0.75
vt 0.125 0.875
vt 0.125 1
vt 0.1875 0
vt 0.1875 0.125
vt 0.1875 0.25
vt 0.1875 0.375
vt 0.1875 0.5
vt 0.1875 0.625
vt 0.1875 0.75
vt 0.1875 0.875
vt 0.1875 1
vt 0.25 0
vt 0.25 0.125
vt 0.25 0.25
vt 0.25 0.375
vt 0.25 0.5
vt 0.25 0.625
vt 0.25 0.75
vt 0.25 0.875
vt 0.25 1
vt 0.3125 0
vt 0.3125 0.125
vt 0.3125 0.25
vt 0.3125 0.375
vt 0.3125 0.5
vt 0.3125 0.625
vt 0.3125 0.75
vt 0.3125 0.875
vt 0.3125 1
vt 0.375 0
vt 0.375 0.125
vt 0.375 0.25
vt 0.375 0.375
vt 0.375 0.5
vt 0.375 0.625
vt 0.375 0.75
vt 0.375 0.875
vt 0.375 1
vt 0.4375 0
vt 0.4375 0.125
vt 0.4375 0.25
vt 0.4375 0.375
vt 0.4375 0.5
vt 0.4375 0.625
vt 0.4375 0.75
vt 0.4375 0.875
vt 0.4375 1
vt 0.5 0
vt 0.5 0.125
vt 0.5 0.25
vt 0.5 0.375
vt 0.5 0.5
vt 0.5 0.625
vt 0.5 0.75
vt 0.5 0.875
vt 0.5 1
vt 0.5625 0
vt 0.5625 0.125
vt 0.5625 0.25
vt 0.5625 0.375
vt 0.5625 0.5
vt 0.5625 0.625
vt 0.5625 0.75
vt 0.5625 0.875
vt 0.5625 1
vt 0.625 0
vt 0.625 0.125
vt 0.625 0.25
vt 0.625 0.375
vt 0.625 0.5
vt 0.625 0.625
vt 0.625 0.75
vt 0.625 0.875
vt 0.625 1
vt 0.6875 0
vt 0.6875 0.125
vt 0.6875 0.25
vt 0.6875 0.375
vt 0.6875 0.5
vt 0.6875 0.625
vt 0.6875 0.75
vt 0.6875 0.875
vt 0.6875 1
vt 0.75 0
vt 0.75 0.125
vt 0.75 0.25
vt 0.75 0.375
vt 0.75 0.5
vt 0.75 0.625
vt 0.75 0.75
vt 0.75 0.875
vt 0.75 1
vt 0.8125 0
vt 0.8125 0.125
vt 0.8125 0.25
vt 0.8125 0.375
vt 0.8125 0.5
vt 0.8125 0.625
vt 0.8125 0.75
vt 0.8125 0.875
vt 0.8125 1
vt 0.875 0
vt 0.875 0.125
vt 0.875 0.25
vt 0.875 0.375
vt 0.875 0.5
vt 0.875 0.625
vt 0.875 0.75
vt 0.875 0.875
vt 0.875 1
vt 0.9375 0
vt 0.9375 0.125
vt 0.9375 0.25
vt 0.9375 0.375
vt 0.9375 0.5
vt 0.9375 0.625
vt 0.9375 0.75
vt 0.9375 0.875
vt 0.9375 1
vt 1 0
vt 1 0.125
vt 1 0.25
vt 1 0.375
vt 1 0.5
vt 1 0.625
vt 1 0.75
vt 1 0.875
vt 1 1
vn 1 0 0
vn 0.707107 0.707107 0
vn 0 1 0
vn -0.707107 0.707107 0
vn -1 0 0
vn -0.707107 -0.707107 0
vn 0 -1 0
vn 0.707107 -0.707107 0
vn 0.92388 0 0.382683
vn 0.653281 0.707107 0.270598
vn 0 1 0
vn -0.653281 0.707107 -0.270598
vn -0.92388 0 -0.382683
vn -0.653281 -0.707107 -0.270598
vn 0 -1 0
vn 0.653281 -0.707107 0.270598
vn 0.707107 0 0.707107
vn 0.5 0.707107 0.5
vn 0 1 0
vn -0.5 0.707107 -0.5
vn -0.707107 0 -0.707107
vn -0.5 -0.707107 -0.5
vn 0 -1 0
vn 0.5 -0.707107 0.5
vn 0.382683 0 0.92388
vn 0.270598 0.707107 0.653281
vn 0 1 0
vn -0.270598 0.707107 -0.653281
vn -0.382683 0 -0.92388
vn -0.270598 -0.707107 -0.653281
vn 0 -1 0
vn 0.270598 -0.707107 0.653281
vn 0 0 1
vn 0 0.707107 0.707107
vn 0 1 0
vn 0 0.707107 -0.707107
vn 0 0 -1
vn 0 -0.707107 -0.707107
vn 0 -1 0
vn 0 -0.707107 0.707107
vn -0.382683 0 0.92388
vn -0.270598 0.707107 0.653281
vn 0 1 0
vn 0.270598 0.707107 -0.653281
vn 0.382683 0 -0.92388
vn 0.270598 -0.707107 -0.653281
vn 0 -1 0
vn -0.270598 -0.707107 0.653281
vn -0.707107 0 0.707107
vn -0.5 0.707107 0.5
vn 0 1 0
vn 0.5 0.707107 -0.5
vn 0.707107 0 -0.707107
vn 0.5 -0.707107 -0.5
vn 0 -1 0
vn -0.5 -0.707107 0.5
vn -0.92388 0 0.382683
vn -0.653281 0.707107 0.270598
vn 0 1 0
vn 0.653281 0.707107 -0.270598
vn 0.92388 0 -0.382683
vn 0.653281 -0.707107 -0.270598
vn 0 -1 0
vn -0.653281 -0.707107 0.270598
vn -1 0 0
vn -0.707107 0.707107 0
vn 0 1 0
vn 0.707107 0.707107 0
vn 1 0 0
vn 0.707107 -0.707107 0
vn 0 -1 0
vn -0.707107 -0.707107 0
vn -0.92388 0 -0.382683
vn -0.653281 0.707107 -0.270598
vn 0 1 0
vn 0.653281 0.707107 0.270598
vn 0.92388 0 0.382683
vn 0.653281 -0.707107 0.270598
vn 0 -1 0
vn -0.653281 -0.707107 -0.270598
vn -0.707107 0 -0.707107
vn -0.5 0.707107 -0.5
vn 0 1 0
vn 0.5 0.707107 0.5
vn 0.707107 0 0.707107
vn 0.5 -0.707107 0.5
vn 0 -1 0
vn -0.5 -0.707107 -0.5
vn -0.382683 0 -0.92388
vn -0.270598 0.707107 -0.653281
vn 0 1 0
vn 0.270598 0.707107 0.653281
vn 0.382683 0 0.92388
vn 0.270598 -0.707107 0.653281
vn 0 -1 0
vn -0.270598 -0.707107 -0.653281
vn 0 0 -1
vn 0 0.707107 -0.707107
vn 0 1 0
vn 0 0.707107 0.707107
vn 0 0 1
vn 0 -0.707107 0.707107
vn 0 -1 0
vn 0 -0.707107 -0.707107
vn 0.382683 0 -0.92388
vn 0.270598 0.707107 -0.653281
vn 0 1 0
vn -0.270598 0.707107 0.653281
vn -0.382683 0 0.92388
vn -0.270598 -0.707107 0.653281
vn 0 -1 0
vn 0.270598 -0.707107 -0.653281
vn 0.707107 0 -0.707107
vn 0.5 0.707107 -0.5
vn 0 1 0
vn -0.5 0.707107 0.5
vn -0.707107 0 0.707107
vn -0.5 -0.707107 0.5
vn 0 -1 0
vn 0.5 -0.707107 -0.5
vn 0.92388 0 -0.382683
vn 0.653281 0.707107 -0.270598
vn 0 1 0
vn -0.653281 0.707107 0.270598
vn -0.92388 0 0.382683
vn -0.653281 -0.707107 0.270598
vn 0 -1 0
vn 0.653281 -0.707107 -0.270598
g mesh
usemtl mesh
f 2/2/2 3/3/3 11/12/11 10/11/10
f 4/4/4 5/5/5 13/14/13 12/13/12
f 6/6/6 7/7/7 15/16/15 14/15/14
f 8/8/8 1/9/1 9/18/9 16/17/16
f 9/10/9 10/11/10 18/20/18 17/19/17
f 11/12/11 12/13/12 20/22/20 19/21/19
f 13/14/13 14/15/14 22/24/22 21/23/21
f 15/16/15 16/17/16 24/26/24 23/25/23
f 18/20/18 19/21/19 27/30/27 26/29/26
f 20/22/20 21/23/21 29/32/29 28/31/28
f 22/24/22 23/25/23 31/34/31 30/33/30
f 24/26/24 17/27/17 25/36/25 32/35/32
f 25/28/25 26/29/26 34/38/34 33/37/33
f 27/30/27 28/31/28 36/40/36 35/39/35
f 29/32/29 30/33/30 38/42/38 37/41/37
f 31/34/31 32/35/32 40/44/40 39/43/39
f 34/38/34 35/39/35 43/48/43 42/47/42
f 36/40/36 37/41/37 45/50/45 44/49/44
f 38/42/38 39/43/39 47/52/47 46/51/46
f 40/44/40 33/45/33 41/54/41 48/53/48
f 41/46/41 42/47/42 50/56/50 49/55/49
f 43/48/43 44/49/44 52/58/52 51/57/51
f 45/50/45 46/51/46 54/60/54 53/59/53
f 47/52/47 48/53/48 56/62/56 55/61/55
f 50/56/50 51/57/51 59/66/59 58/65/58
f 52/58/52 53/59/53 61/68/61 60/67/60
f 54/60/54 55/61/55 63/70/63 62/69/62
f 56/62/56 49/63/49 57/72/57 64/71/64
f 57/64/57 58/65/58 66/74/66 65/73/65
f 59/66/59 60/67/60 68/76/68 67/75/67
f 61/68/61 62/69/62 70/78/70 69/77/69
f 63/70/63 64/71/64 72/80/72 71/79/71
f 66/74/66 67/75/67 75/84/75 74/83/74
f 68/76/68 69/77/69 77/86/77 76/85/76
f 70/78/70 71/79/71 79/88/79 78/87/78
f 72/80/72 65/81/65 73/90/73 80/89/80
f 73/82/73 74/83/74 82/92/82 81/91/81
f 75/84/75 76/85/76 84/94/84 83/93/83
f 77/86/77 78/87/78 86/96/86 85/95/85
f 79/88/79 80/89/80 88/98/88 87/97/87
f 82/92/82 83/93/83 91/102/91 90/101/90
f 84/94/84 85/95/85 93/104/93 92/103/92
f 86/96/86 87/97/87 95/106/95 94/105/94
f 88/98/88 81/99/81 89/108/89 96/107/96
f 89/100/89 90/101/90 98/110/98 97/109/97
f 91/102/91 92/103/92 100/112/100 99/111/99
f 93/104/93 94/105/94 102/114/102 101/113/101
f 95/106/95 96/107/96 104/116/104 103/115/103
f 98/110/98 99/111/99 107/120/107 106/119/106
f 100/112/100 101/113/101 109/122/109 108/121/108
f 102/114/102 103/115/103 111/124/111 110/123/110
f 104/116/104 97/117/97 105/126/105 112/125/112
f 105/118/105 106/119/106 114/128/114 113/127/113
f 107/120/107 108/121/108 116/130/116 115/129/115
f 109/122/109 110/123/110 118/132/118 117/131/117
f 111/124/111 112/125/112 120/134/120 119/133/119
f 114/128/114 115/129/115 123/138/123 122/137/122
f 116/130/116 117/131/117 125/140/125 124/139/124
f 118/132/118 119/133/119 127/142/127 126/141/126
f 120/134/120 113/135/113 121/144/121 128/143/128
f 121/136/121 122/137/122 2/146/2 1/145/1
f 123/138/123 124/139/124 4/148/4 3/147/3
f 125/140/125 126/141/126 6/150/6 5/149/5
f 127/142/127 128/143/128 8/152/8 7/151/7
g meshAlt
usemtl meshAlt
f 1/1/1 2/2/2 10/11/10 9/10/9
f 3/3/3 4/4/4 12/13/12 11/12/11
f 5/5/5 6/6/6 14/15/14 13/14/13
f 7/7/7 8/8/8 16/17/16 15/16/15
f 10/11/10 11/12/11 19/21/19 18/20/18
f 12/13/12 13/14/13 21/23/21 20/22/20
f 14/15/14 15/16/15 23/25/23 22/24/22
f 16/17/16 9/18/9 17/27/17 24/26/24
f 17/19/17 18/20/18 26/29/26 25/28/25
f 19/21/19 20/22/20 28/31/28 27/30/27
f 21/23/21 22/24/22 30/33/30 29/32/29
f 23/25/23 24/26/24 32/35/32 31/34/31
f 26/29/26 27/30/27 35/39/35 34/38/34
f 28/31/28 29/32/29 37/41/37 36/40/36
f 30/33/30 31/34/31 39/43/39 38/42/38
f 32/35/32 25/36/25 33/45/33 40/44/40
f 33/37/33 34/38/34 42/47/42 41/46/41
f 35/39/35 36/40/36 44/49/44 43/48/43
f 37/41/37 38/42/38 46/51/46 45/50/45
f 39/43/39 40/44/40 48/53/48 47/52/47
f 42/47/42 43/48/43 51/57/51 50/56/50
f 44/49/44 45/50/45 53/59/53 52/58/52
f 46/51/46 47/52/47 55/61/55 54/60/54
f 48/53/48 41/54/41 49/63/49 56/62/56
f 49/55/49 50/56/50 58/65/58 57/64/57
f 51/57/51 52/58/52 60/67/60 59/66/59
f 53/59/53 54/60/54 62/69/62 61/68/61
f 55/61/55 56/62/56 64/71/64 63/70/63
f 58/65/58 59/66/59 67/75/67 66/74/66
f 60/67/60 61/68/61 69/77/69 68/76/68
f 62/69/62 63/70/63 71/79/71 70/78/70
f 64/71/64 57/72/57 65/81/65 72/80/72
f 65/73/65 66/74/66 74/83/74 73/82/73
f 67/75/67 68/76/68 76/85/76 75/84/75
f 69/77/69 70/78/70 78/87/78 77/86/77
f 71/79/71 72/80/72 80/89/80 79/88/79
f 74/83/74 75/84/75 83/93/83 82/92/82
f 76/85/76 77/86/77 85/95/85 84/94/84
f 78/87/78 79/88/79 87/97/87 86/96/86
f 80/89/80 73/90/73 81/99/81 88/98/88
f 81/91/81 82/92/82 90/101/90 89/100/89
f 83/93/83 84/94/84 92/103/92 91/102/91
f 85/95/85 86/96/86 94/105/94 93/104/93
f 87/97/87 88/98/88 96/107/96 95/106/95
f 90/101/90 91/102/91 99/111/99 98/110/98
f 92/103/92 93/104/93 101/113/101 100/112/100
f 94/105/94 95/106/95 103/115/103 102/114/102
f 96/107/96 89/108/89 97/117/97 104/116/104
f 97/109/97 98/110/98 106/119/106 105/118/105
f 99/111/99 100/112/100 108/121/108 107/120/107
f 101/113/101 102/114/102 110/123/110 109/122/109
f 103/115/103 104/116/104 112/125/112 111/124/111
f 106/119/106 107/120/107 115/129/115 114/128/114
f 108/121/108 109/122/109 117/131/117 116/130/116
f 110/123/110 111/124/111 119/133/119 118/132/118
f 112/125/112 105/126/105 113/135/113 120/134/120
f 113/127/113 114/128/114 122/137/122 121/136/121
f 115/129/115 116/130/116 124/139/124 123/138/123
f 117/131/117 118/132/118 126/141/126 125/140/125
f 119/133/119 120/134/120 128/143/128 127/142/127
f 122/137/122 123/138/123 3/147/3 2/146/2
f 124/139/124 125/140/125 5/149/5 4/148/4
f 126/141/126 127/142/127 7/151/7 6/150/6
f 128/143/128 121/144/121 1/153/1 8/152/8
