# quad mesh, cube sphere 6x6 per face, 218 vertices, 216 faces
v -0.654654 -0.654654 -0.377964
v -0.774597 -0.447214 -0.447214
v -0.654654 -0.377964 -0.654654
v -0.57735 -0.57735 -0.57735
v -0.694747 -0.694747 -0.186157
v -0.84361 -0.487058 -0.226045
v -0.707107 -0.707107 0
v -0.866025 -0.5 0
v -0.694747 -0.694747 0.186157
v -0.84361 -0.487058 0.226045
v -0.654654 -0.654654 0.377964
v -0.774597 -0.447214 0.447214
v -0.57735 -0.57735 0.57735
v -0.654654 -0.377964 0.654654
v -0.84361 -0.226045 -0.487058
v -0.694747 -0.186157 -0.694747
v -0.935113 -0.250563 -0.250563
v -0.965926 -0.258819 0
v -0.935113 -0.250563 0.250563
v -0.84361 -0.226045 0.487058
v -0.694747 -0.186157 0.694747
v -0.866025 0 -0.5
v -0.707107 0 -0.707107
v -0.965926 0 -0.258819
v -1 0 0
v -0.965926 0 0.258819
v -0.866025 0 0.5
v -0.707107 0 0.707107
v -0.84361 0.226045 -0.487058
v -0.694747 0.186157 -0.694747
v -0.935113 0.250563 -0.250563
v -0.965926 0.258819 0
v -0.935113 0.250563 0.250563
v -0.84361 0.226045 0.487058
v -0.694747 0.186157 0.694747
v -0.774597 0.447214 -0.447214
v -0.654654 0.377964 -0.654654
v -0.84361 0.487058 -0.226045
v -0.866025 0.5 0
v -0.84361 0.487058 0.226045
v -0.774597 0.447214 0.447214
v -0.654654 0.377964 0.654654
v -0.654654 0.654654 -0.377964
v -0.57735 0.57735 -0.57735
v -0.694747 0.694747 -0.186157
v -0.707107 0.707107 0
v -0.694747 0.694747 0.186157
v -0.654654 0.654654 0.377964
v -0.57735 0.57735 0.57735
v 0.57735 -0.57735 -0.57735
v 0.654654 -0.377964 -0.654654
v 0.774597 -0.447214 -0.447214
v 0.654654 -0.654654 -0.377964
v 0.84361 -0.487058 -0.226045
v 0.694747 -0.694747 -0.186157
v 0.866025 -0.5 0
v 0.707107 -0.707107 0
v 0.84361 -0.487058 0.226045
v 0.694747 -0.694747 0.186157
v 0.774597 -0.447214 0.447214
v 0.654654 -0.654654 0.377964
v 0.654654 -0.377964 0.654654
v 0.57735 -0.57735 0.57735
v 0.694747 -0.186157 -0.694747
v 0.84361 -0.226045 -0.487058
v 0.935113 -0.250563 -0.250563
v 0.965926 -0.258819 0
v 0.935113 -0.250563 0.250563
v 0.84361 -0.226045 0.487058
v 0.694747 -0.186157 0.694747
v 0.707107 0 -0.707107
v 0.866025 0 -0.5
v 0.965926 0 -0.258819
v 1 0 0
v 0.965926 0 0.258819
v 0.866025 0 0.5
v 0.707107 0 0.707107
v 0.694747 0.186157 -0.694747
v 0.84361 0.226045 -0.487058
v 0.935113 0.250563 -0.250563
v 0.965926 0.258819 0
v 0.935113 0.250563 0.250563
v 0.84361 0.226045 0.487058
v 0.694747 0.186157 0.694747
v 0.654654 0.377964 -0.654654
v 0.774597 0.447214 -0.447214
v 0.84361 0.487058 -0.226045
v 0.866025 0.5 0
v 0.84361 0.487058 0.226045
v 0.774597 0.447214 0.447214
v 0.654654 0.377964 0.654654
v 0.57735 0.57735 -0.57735
v 0.654654 0.654654 -0.377964
v 0.694747 0.694747 -0.186157
v 0.707107 0.707107 0
v 0.694747 0.694747 0.186157
v 0.654654 0.654654 0.377964
v 0.57735 0.57735 0.57735
v -0.377964 -0.654654 -0.654654
v -0.447214 -0.774597 -0.447214
v -0.186157 -0.694747 -0.694747
v -0.226045 -0.84361 -0.487058
v 0 -0.707107 -0.707107
v 0 -0.866025 -0.5
v 0.186157 -0.694747 -0.694747
v 0.226045 -0.84361 -0.487058
v 0.377964 -0.654654 -0.654654
v 0.447214 -0.774597 -0.447214
v -0.487058 -0.84361 -0.226045
v -0.250563 -0.935113 -0.250563
v 0 -0.965926 -0.258819
v 0.250563 -0.935113 -0.250563
v 0.487058 -0.84361 -0.226045
v -0.5 -0.866025 0
v -0.258819 -0.965926 0
v 0 -1 0
v 0.258819 -0.965926 0
v 0.5 -0.866025 0
v -0.487058 -0.84361 0.226045
v -0.250563 -0.935113 0.250563
v 0 -0.965926 0.258819
v 0.250563 -0.935113 0.250563
v 0.487058 -0.84361 0.226045
v -0.447214 -0.774597 0.447214
v -0.226045 -0.84361 0.487058
v 0 -0.866025 0.5
v 0.226045 -0.84361 0.487058
v 0.447214 -0.774597 0.447214
v -0.377964 -0.654654 0.654654
v -0.186157 -0.694747 0.694747
v 0 -0.707107 0.707107
v 0.186157 -0.694747 0.694747
v 0.377964 -0.654654 0.654654
v -0.447214 0.774597 -0.447214
v -0.377964 0.654654 -0.654654
v -0.226045 0.84361 -0.487058
v -0.186157 0.694747 -0.694747
v 0 0.866025 -0.5
v 0 0.707107 -0.707107
v 0.226045 0.84361 -0.487058
v 0.186157 0.694747 -0.694747
v 0.447214 0.774597 -0.447214
v 0.377964 0.654654 -0.654654
v -0.487058 0.84361 -0.226045
v -0.250563 0.935113 -0.250563
v 0 0.965926 -0.258819
v 0.250563 0.935113 -0.250563
v 0.487058 0.84361 -0.226045
v -0.5 0.866025 0
v -0.258819 0.965926 0
v 0 1 0
v 0.258819 0.965926 0
v 0.5 0.866025 0
v -0.487058 0.84361 0.226045
v -0.250563 0.935113 0.250563
v 0 0.965926 0.258819
v 0.250563 0.935113 0.250563
v 0.487058 0.84361 0.226045
v -0.447214 0.774597 0.447214
v -0.226045 0.84361 0.487058
v 0 0.866025 0.5
v 0.226045 0.84361 0.487058
v 0.447214 0.774597 0.447214
v -0.377964 0.654654 0.654654
v -0.186157 0.694747 0.694747
v 0 0.707107 0.707107
v 0.186157 0.694747 0.694747
v 0.377964 0.654654 0.654654
v -0.447214 -0.447214 -0.774597
v -0.487058 -0.226045 -0.84361
v -0.5 0 -0.866025
v -0.487058 0.226045 -0.84361
v -0.447214 0.447214 -0.774597
v -0.226045 -0.487058 -0.84361
v -0.250563 -0.250563 -0.935113
v -0.258819 0 -0.965926
v -0.250563 0.250563 -0.935113
v -0.226045 0.487058 -0.84361
v 0 -0.5 -0.866025
v 0 -0.258819 -0.965926
v 0 0 -1
v 0 0.258819 -0.965926
v 0 0.5 -0.866025
v 0.226045 -0.487058 -0.84361
v 0.250563 -0.250563 -0.935113
v 0.258819 0 -0.965926
v 0.250563 0.250563 -0.935113
v 0.226045 0.487058 -0.84361
v 0.447214 -0.447214 -0.774597
v 0.487058 -0.226045 -0.84361
v 0.5 0 -0.866025
v 0.487058 0.226045 -0.84361
v 0.447214 0.447214 -0.774597
v -0.447214 -0.447214 0.774597
v -0.487058 -0.226045 0.84361
v -0.5 0 0.866025
v -0.487058 0.226045 0.84361
v -0.447214 0.447214 0.774597
v -0.226045 -0.487058 0.84361
v -0.250563 -0.250563 0.935113
v -0.258819 0 0.965926
v -0.250563 0.250563 0.935113
v -0.226045 0.487058 0.84361
v 0 -0.5 0.866025
v 0 -0.258819 0.965926
v 0 0 1
v 0 0.258819 0.965926
v 0 0.5 0.866025
v 0.226045 -0.487058 0.84361
v 0.250563 -0.250563 0.935113
v 0.258819 0 0.965926
v 0.250563 0.250563 0.935113
v 0.226045 0.487058 0.84361
v 0.447214 -0.447214 0.774597
v 0.487058 -0.226045 0.84361
v 0.5 0 0.866025
v 0.487058 0.226045 0.84361
v 0.447214 0.447214 0.774597
f 1 2 3 4
f 5 6 2 1
f 7 8 6 5
f 9 10 8 7
f 11 12 10 9
f 13 14 12 11
f 2 15 16 3
f 6 17 15 2
f 8 18 17 6
f 10 19 18 8
f 12 20 19 10
f 14 21 20 12
f 15 22 23 16
f 17 24 22 15
f 18 25 24 17
f 19 26 25 18
f 20 27 26 19
f 21 28 27 20
f 22 29 30 23
f 24 31 29 22
f 25 32 31 24
f 26 33 32 25
f 27 34 33 26
f 28 35 34 27
f 29 36 37 30
f 31 38 36 29
f 32 39 38 31
f 33 40 39 32
f 34 41 40 33
f 35 42 41 34
f 36 43 44 37
f 38 45 43 36
f 39 46 45 38
f 40 47 46 39
f 41 48 47 40
f 42 49 48 41
f 50 51 52 53
f 53 52 54 55
f 55 54 56 57
f 57 56 58 59
f 59 58 60 61
f 61 60 62 63
f 51 64 65 52
f 52 65 66 54
f 54 66 67 56
f 56 67 68 58
f 58 68 69 60
f 60 69 70 62
f 64 71 72 65
f 65 72 73 66
f 66 73 74 67
f 67 74 75 68
f 68 75 76 69
f 69 76 77 70
f 71 78 79 72
f 72 79 80 73
f 73 80 81 74
f 74 81 82 75
f 75 82 83 76
f 76 83 84 77
f 78 85 86 79
f 79 86 87 80
f 80 87 88 81
f 81 88 89 82
f 82 89 90 83
f 83 90 91 84
f 85 92 93 86
f 86 93 94 87
f 87 94 95 88
f 88 95 96 89
f 89 96 97 90
f 90 97 98 91
f 99 100 1 4
f 101 102 100 99
f 103 104 102 101
f 105 106 104 103
f 107 108 106 105
f 50 53 108 107
f 100 109 5 1
f 102 110 109 100
f 104 111 110 102
f 106 112 111 104
f 108 113 112 106
f 53 55 113 108
f 109 114 7 5
f 110 115 114 109
f 111 116 115 110
f 112 117 116 111
f 113 118 117 112
f 55 57 118 113
f 114 119 9 7
f 115 120 119 114
f 116 121 120 115
f 117 122 121 116
f 118 123 122 117
f 57 59 123 118
f 119 124 11 9
f 120 125 124 119
f 121 126 125 120
f 122 127 126 121
f 123 128 127 122
f 59 61 128 123
f 124 129 13 11
f 125 130 129 124
f 126 131 130 125
f 127 132 131 126
f 128 133 132 127
f 61 63 133 128
f 44 43 134 135
f 135 134 136 137
f 137 136 138 139
f 139 138 140 141
f 141 140 142 143
f 143 142 93 92
f 43 45 144 134
f 134 144 145 136
f 136 145 146 138
f 138 146 147 140
f 140 147 148 142
f 142 148 94 93
f 45 46 149 144
f 144 149 150 145
f 145 150 151 146
f 146 151 152 147
f 147 152 153 148
f 148 153 95 94
f 46 47 154 149
f 149 154 155 150
f 150 155 156 151
f 151 156 157 152
f 152 157 158 153
f 153 158 96 95
f 47 48 159 154
f 154 159 160 155
f 155 160 161 156
f 156 161 162 157
f 157 162 163 158
f 158 163 97 96
f 48 49 164 159
f 159 164 165 160
f 160 165 166 161
f 161 166 167 162
f 162 167 168 163
f 163 168 98 97
f 3 169 99 4
f 16 170 169 3
f 23 171 170 16
f 30 172 171 23
f 37 173 172 30
f 44 135 173 37
f 169 174 101 99
f 170 175 174 169
f 171 176 175 170
f 172 177 176 171
f 173 178 177 172
f 135 137 178 173
f 174 179 103 101
f 175 180 179 174
f 176 181 180 175
f 177 182 181 176
f 178 183 182 177
f 137 139 183 178
f 179 184 105 103
f 180 185 184 179
f 181 186 185 180
f 182 187 186 181
f 183 188 187 182
f 139 141 188 183
f 184 189 107 105
f 185 190 189 184
f 186 191 190 185
f 187 192 191 186
f 188 193 192 187
f 141 143 193 188
f 189 51 50 107
f 190 64 51 189
f 191 71 64 190
f 192 78 71 191
f 193 85 78 192
f 143 92 85 193
f 13 129 194 14
f 14 194 195 21
f 21 195 196 28
f 28 196 197 35
f 35 197 198 42
f 42 198 164 49
f 129 130 199 194
f 194 199 200 195
f 195 200 201 196
f 196 201 202 197
f 197 202 203 198
f 198 203 165 164
f 130 131 204 199
f 199 204 205 200
f 200 205 206 201
f 201 206 207 202
f 202 207 208 203
f 203 208 166 165
f 131 132 209 204
f 204 209 210 205
f 205 210 211 206
f 206 211 212 207
f 207 212 213 208
f 208 213 167 166
f 132 133 214 209
f 209 214 215 210
f 210 215 216 211
f 211 216 217 212
f 212 217 218 213
f 213 218 168 167
f 133 63 62 214
f 214 62 70 215
f 215 70 77 216
f 216 77 84 217
f 217 84 91 218
f 218 91 98 168
