# tetrahedral mesh as drawn: cut at x > 0.2, each tetrahedron shrunk to 0.8, 432 vertices, 432 faces
v -0.526917 -0.549858 -0.580009
v -0.306245 -0.329187 -0.841756
v -0.248569 -0.638576 -0.668727
v -0.218996 -0.241938 -0.272089
v -0.248569 -0.668727 -0.638576
v -0.306245 -0.841756 -0.329187
v -0.526917 -0.580009 -0.549858
v -0.218996 -0.272089 -0.241938
v -0.638576 -0.248569 -0.668727
v -0.329187 -0.306245 -0.841756
v -0.549858 -0.526917 -0.580009
v -0.241938 -0.218996 -0.272089
v -0.580009 -0.526917 -0.549858
v -0.841756 -0.306245 -0.329187
v -0.668727 -0.248569 -0.638576
v -0.272089 -0.218996 -0.241938
v -0.549858 -0.580009 -0.526917
v -0.329187 -0.841756 -0.306245
v -0.638576 -0.668727 -0.248569
v -0.241938 -0.272089 -0.218996
v -0.668727 -0.638576 -0.248569
v -0.841756 -0.329187 -0.306245
v -0.580009 -0.549858 -0.526917
v -0.272089 -0.241938 -0.218996
v -0.619331 -0.649482 -0.210079
v -0.222693 -0.252844 -0.180506
v -0.309942 -0.822511 -0.267755
v -0.222693 -0.252844 0.127414
v -0.315395 -0.858115 -0.243057
v -0.315395 -0.858115 0.239361
v -0.624784 -0.685086 -0.185381
v -0.228146 -0.288448 0.152112
v -0.822511 -0.309942 -0.267755
v -0.252844 -0.222693 -0.180506
v -0.649482 -0.619331 -0.210079
v -0.252844 -0.222693 0.127414
v -0.685086 -0.624784 -0.185381
v -0.858115 -0.315395 0.239361
v -0.858115 -0.315395 -0.243057
v -0.288448 -0.228146 0.152112
v -0.644121 -0.674272 -0.158835
v -0.334732 -0.847301 0.265907
v -0.644121 -0.674272 0.208231
v -0.247483 -0.277634 0.178658
v -0.674272 -0.644121 0.208231
v -0.847301 -0.334732 0.265907
v -0.674272 -0.644121 -0.158835
v -0.277634 -0.247483 0.178658
v -0.624784 -0.654935 0.264928
v -0.228146 -0.258297 0.235356
v -0.315395 -0.827964 0.322605
v -0.315395 -0.345546 0.805023
v -0.317243 -0.852754 0.347394
v -0.259567 -0.679725 0.656783
v -0.626632 -0.679725 0.289718
v -0.317243 -0.370336 0.829813
v -0.827964 -0.315395 0.322605
v -0.258297 -0.228146 0.235356
v -0.654935 -0.624784 0.264928
v -0.345546 -0.315395 0.805023
v -0.679725 -0.626632 0.289718
v -0.679725 -0.259567 0.656783
v -0.852754 -0.317243 0.347394
v -0.370336 -0.317243 0.829813
v -0.640424 -0.663366 0.30351
v -0.273359 -0.663366 0.670575
v -0.551706 -0.574648 0.581858
v -0.331035 -0.353977 0.843605
v -0.574648 -0.551706 0.581858
v -0.663366 -0.273359 0.670575
v -0.663366 -0.640424 0.30351
v -0.353977 -0.331035 0.843605
v -0.624784 -0.185381 -0.685086
v -0.315395 0.239361 -0.858115
v -0.315395 -0.243057 -0.858115
v -0.228146 0.152112 -0.288448
v -0.309942 -0.267755 -0.822511
v -0.222693 -0.180506 -0.252844
v -0.619331 -0.210079 -0.649482
v -0.222693 0.127414 -0.252844
v -0.644121 0.208231 -0.674272
v -0.334732 0.265907 -0.847301
v -0.644121 -0.158835 -0.674272
v -0.247483 0.178658 -0.277634
v -0.674272 -0.158835 -0.644121
v -0.847301 0.265907 -0.334732
v -0.674272 0.208231 -0.644121
v -0.277634 0.178658 -0.247483
v -0.649482 -0.210079 -0.619331
v -0.252844 -0.180506 -0.222693
v -0.822511 -0.267755 -0.309942
v -0.252844 0.127414 -0.222693
v -0.858115 -0.243057 -0.315395
v -0.858115 0.239361 -0.315395
v -0.685086 -0.185381 -0.624784
v -0.288448 0.152112 -0.228146
v -0.797721 -0.246662 -0.265907
v -0.228054 0.148507 -0.178658
v -0.228054 -0.159413 -0.178658
v -0.228054 0.148507 0.129262
v -0.228054 -0.178658 -0.159413
v -0.228054 -0.178658 0.148507
v -0.797721 -0.265907 -0.246662
v -0.228054 0.129262 0.148507
v -0.833326 0.260454 -0.27136
v -0.263658 0.173205 -0.184111
v -0.833326 -0.221964 -0.27136
v -0.263658 0.173205 0.123809
v -0.86893 -0.216511 -0.246662
v -0.86893 0.265907 0.235756
v -0.86893 0.265907 -0.246662
v -0.299263 0.178658 0.148507
v -0.833326 -0.27136 -0.221964
v -0.263658 -0.184111 0.173205
v -0.833326 -0.27136 0.260454
v -0.263658 0.123809 0.173205
v -0.86893 -0.246662 0.265907
v -0.86893 0.235756 0.265907
v -0.86893 -0.246662 -0.216511
v -0.299263 0.148507 0.178658
v -0.803175 -0.241209 0.320756
v -0.233507 0.15396 0.233507
v -0.233507 -0.15396 0.233507
v -0.320756 0.241209 0.803175
v -0.23896 -0.178658 0.269112
v -0.326209 -0.265907 0.838779
v -0.808628 -0.265907 0.356361
v -0.326209 0.216511 0.838779
v -0.838779 0.265907 0.326209
v -0.269112 0.178658 0.23896
v -0.838779 -0.216511 0.326209
v -0.356361 0.265907 0.808628
v -0.863569 -0.214663 0.350999
v -0.690539 0.210079 0.660388
v -0.863569 0.267755 0.350999
v -0.38115 0.267755 0.833417
v -0.833417 -0.267755 0.38115
v -0.350999 -0.267755 0.863569
v -0.660388 -0.210079 0.690539
v -0.350999 0.214663 0.863569
v -0.679725 -0.183533 0.679725
v -0.679725 0.183533 0.679725
v -0.852754 -0.241209 0.370336
v -0.370336 0.241209 0.852754
v -0.626632 0.289718 -0.679725
v -0.259567 0.656783 -0.679725
v -0.317243 0.347394 -0.852754
v -0.317243 0.829813 -0.370336
v -0.315395 0.322605 -0.827964
v -0.228146 0.235356 -0.258297
v -0.624784 0.264928 -0.654935
v -0.315395 0.805023 -0.345546
v -0.551706 0.581858 -0.574648
v -0.273359 0.670575 -0.663366
v -0.640424 0.30351 -0.663366
v -0.331035 0.843605 -0.353977
v -0.663366 0.30351 -0.640424
v -0.663366 0.670575 -0.273359
v -0.574648 0.581858 -0.551706
v -0.353977 0.843605 -0.331035
v -0.654935 0.264928 -0.624784
v -0.258297 0.235356 -0.228146
v -0.827964 0.322605 -0.315395
v -0.345546 0.805023 -0.315395
v -0.852754 0.347394 -0.317243
v -0.679725 0.656783 -0.259567
v -0.679725 0.289718 -0.626632
v -0.370336 0.829813 -0.317243
v -0.808628 0.356361 -0.265907
v -0.326209 0.838779 -0.265907
v -0.23896 0.269112 -0.178658
v -0.326209 0.838779 0.216511
v -0.233507 0.233507 -0.15396
v -0.233507 0.233507 0.15396
v -0.803175 0.320756 -0.241209
v -0.320756 0.803175 0.241209
v -0.660388 0.690539 -0.210079
v -0.350999 0.863569 -0.267755
v -0.833417 0.38115 -0.267755
v -0.350999 0.863569 0.214663
v -0.852754 0.370336 -0.241209
v -0.679725 0.679725 0.183533
v -0.679725 0.679725 -0.183533
v -0.370336 0.852754 0.241209
v -0.838779 0.326209 -0.216511
v -0.269112 0.23896 0.178658
v -0.838779 0.326209 0.265907
v -0.356361 0.808628 0.265907
v -0.863569 0.350999 0.267755
v -0.690539 0.660388 0.210079
v -0.863569 0.350999 -0.214663
v -0.38115 0.833417 0.267755
v -0.805023 0.345546 0.315395
v -0.322605 0.827964 0.315395
v -0.235356 0.258297 0.228146
v -0.264928 0.654935 0.624784
v -0.235356 0.228146 0.258297
v -0.322605 0.315395 0.827964
v -0.805023 0.315395 0.345546
v -0.264928 0.624784 0.654935
v -0.656783 0.679725 0.259567
v -0.347394 0.852754 0.317243
v -0.829813 0.370336 0.317243
v -0.289718 0.679725 0.626632
v -0.843605 0.353977 0.331035
v -0.581858 0.574648 0.551706
v -0.670575 0.663366 0.273359
v -0.30351 0.663366 0.640424
v -0.829813 0.317243 0.370336
v -0.347394 0.317243 0.852754
v -0.656783 0.259567 0.679725
v -0.289718 0.626632 0.679725
v -0.670575 0.273359 0.663366
v -0.581858 0.551706 0.574648
v -0.843605 0.331035 0.353977
v -0.30351 0.640424 0.663366
v -0.158835 -0.644121 -0.674272
v 0.265907 -0.334732 -0.847301
v 0.208231 -0.644121 -0.674272
v 0.178658 -0.247483 -0.277634
v 0.208231 -0.674272 -0.644121
v 0.265907 -0.847301 -0.334732
v -0.158835 -0.674272 -0.644121
v 0.178658 -0.277634 -0.247483
v -0.243057 -0.315395 -0.858115
v 0.239361 -0.315395 -0.858115
v -0.185381 -0.624784 -0.685086
v 0.152112 -0.228146 -0.288448
v -0.210079 -0.619331 -0.649482
v -0.180506 -0.222693 -0.252844
v -0.267755 -0.309942 -0.822511
v 0.127414 -0.222693 -0.252844
v -0.185381 -0.685086 -0.624784
v 0.239361 -0.858115 -0.315395
v -0.243057 -0.858115 -0.315395
v 0.152112 -0.288448 -0.228146
v -0.267755 -0.822511 -0.309942
v -0.180506 -0.252844 -0.222693
v -0.210079 -0.649482 -0.619331
v 0.127414 -0.252844 -0.222693
v -0.221964 -0.833326 -0.27136
v 0.173205 -0.263658 -0.184111
v 0.260454 -0.833326 -0.27136
v 0.173205 -0.263658 0.123809
v 0.265907 -0.86893 -0.246662
v 0.265907 -0.86893 0.235756
v -0.216511 -0.86893 -0.246662
v 0.178658 -0.299263 0.148507
v -0.159413 -0.228054 -0.178658
v 0.148507 -0.228054 -0.178658
v -0.246662 -0.797721 -0.265907
v 0.148507 -0.228054 0.129262
v -0.265907 -0.797721 -0.246662
v -0.178658 -0.228054 0.148507
v -0.178658 -0.228054 -0.159413
v 0.129262 -0.228054 0.148507
v -0.246662 -0.86893 -0.216511
v 0.235756 -0.86893 0.265907
v -0.246662 -0.86893 0.265907
v 0.148507 -0.299263 0.178658
v -0.27136 -0.833326 0.260454
v -0.184111 -0.263658 0.173205
v -0.27136 -0.833326 -0.221964
v 0.123809 -0.263658 0.173205
v -0.216511 -0.838779 0.326209
v 0.178658 -0.269112 0.23896
v 0.265907 -0.838779 0.326209
v 0.265907 -0.356361 0.808628
v 0.267755 -0.863569 0.350999
v 0.210079 -0.690539 0.660388
v -0.214663 -0.863569 0.350999
v 0.267755 -0.38115 0.833417
v -0.15396 -0.233507 0.233507
v 0.15396 -0.233507 0.233507
v -0.241209 -0.803175 0.320756
v 0.241209 -0.320756 0.803175
v -0.265907 -0.808628 0.356361
v -0.265907 -0.326209 0.838779
v -0.178658 -0.23896 0.269112
v 0.216511 -0.326209 0.838779
v -0.241209 -0.852754 0.370336
v 0.183533 -0.679725 0.679725
v -0.183533 -0.679725 0.679725
v 0.241209 -0.370336 0.852754
v -0.210079 -0.660388 0.690539
v -0.267755 -0.350999 0.863569
v -0.267755 -0.833417 0.38115
v 0.214663 -0.350999 0.863569
v -0.216511 -0.246662 -0.86893
v 0.265907 0.235756 -0.86893
v 0.265907 -0.246662 -0.86893
v 0.178658 0.148507 -0.299263
v 0.260454 -0.27136 -0.833326
v 0.173205 -0.184111 -0.263658
v -0.221964 -0.27136 -0.833326
v 0.173205 0.123809 -0.263658
v -0.246662 0.265907 -0.86893
v 0.235756 0.265907 -0.86893
v -0.246662 -0.216511 -0.86893
v 0.148507 0.178658 -0.299263
v -0.27136 -0.221964 -0.833326
v -0.184111 0.173205 -0.263658
v -0.27136 0.260454 -0.833326
v 0.123809 0.173205 -0.263658
v -0.246662 -0.265907 -0.797721
v 0.148507 -0.178658 -0.228054
v -0.159413 -0.178658 -0.228054
v 0.148507 0.129262 -0.228054
v -0.178658 -0.159413 -0.228054
v -0.178658 0.148507 -0.228054
v -0.265907 -0.246662 -0.797721
v 0.129262 0.148507 -0.228054
v -0.134715 -0.15396 -0.173205
v 0.173205 0.15396 -0.173205
v 0.173205 -0.15396 -0.173205
v 0.173205 0.15396 0.134715
v 0.173205 -0.173205 -0.15396
v 0.173205 -0.173205 0.15396
v -0.134715 -0.173205 -0.15396
v 0.173205 0.134715 0.15396
v -0.15396 0.173205 -0.173205
v 0.15396 0.173205 -0.173205
v -0.15396 -0.134715 -0.173205
v 0.15396 0.173205 0.134715
v -0.173205 -0.134715 -0.15396
v -0.173205 0.173205 0.15396
v -0.173205 0.173205 -0.15396
v 0.134715 0.173205 0.15396
v -0.15396 -0.173205 -0.134715
v 0.15396 -0.173205 0.173205
v -0.15396 -0.173205 0.173205
v 0.15396 0.134715 0.173205
v -0.173205 -0.15396 0.173205
v -0.173205 0.15396 0.173205
v -0.173205 -0.15396 -0.134715
v 0.134715 0.15396 0.173205
v -0.129262 -0.148507 0.228054
v 0.178658 0.159413 0.228054
v 0.178658 -0.148507 0.228054
v 0.265907 0.246662 0.797721
v 0.184111 -0.173205 0.263658
v 0.27136 -0.260454 0.833326
v -0.123809 -0.173205 0.263658
v 0.27136 0.221964 0.833326
v -0.148507 0.178658 0.228054
v 0.159413 0.178658 0.228054
v -0.148507 -0.129262 0.228054
v 0.246662 0.265907 0.797721
v -0.173205 -0.123809 0.263658
v -0.260454 0.27136 0.833326
v -0.173205 0.184111 0.263658
v 0.221964 0.27136 0.833326
v -0.148507 -0.178658 0.299263
v 0.246662 -0.265907 0.86893
v -0.235756 -0.265907 0.86893
v 0.246662 0.216511 0.86893
v -0.265907 -0.235756 0.86893
v -0.265907 0.246662 0.86893
v -0.178658 -0.148507 0.299263
v 0.216511 0.246662 0.86893
v -0.214663 0.350999 -0.863569
v 0.210079 0.660388 -0.690539
v 0.267755 0.350999 -0.863569
v 0.267755 0.833417 -0.38115
v 0.265907 0.326209 -0.838779
v 0.178658 0.23896 -0.269112
v -0.216511 0.326209 -0.838779
v 0.265907 0.808628 -0.356361
v -0.183533 0.679725 -0.679725
v 0.183533 0.679725 -0.679725
v -0.241209 0.370336 -0.852754
v 0.241209 0.852754 -0.370336
v -0.267755 0.38115 -0.833417
v -0.267755 0.863569 -0.350999
v -0.210079 0.690539 -0.660388
v 0.214663 0.863569 -0.350999
v -0.241209 0.320756 -0.803175
v 0.15396 0.233507 -0.233507
v -0.15396 0.233507 -0.233507
v 0.241209 0.803175 -0.320756
v -0.178658 0.269112 -0.23896
v -0.265907 0.838779 -0.326209
v -0.265907 0.356361 -0.808628
v 0.216511 0.838779 -0.326209
v -0.123809 0.263658 -0.173205
v 0.27136 0.833326 -0.260454
v 0.184111 0.263658 -0.173205
v 0.27136 0.833326 0.221964
v 0.178658 0.228054 -0.148507
v 0.178658 0.228054 0.159413
v -0.129262 0.228054 -0.148507
v 0.265907 0.797721 0.246662
v -0.235756 0.86893 -0.265907
v 0.246662 0.86893 -0.265907
v -0.148507 0.299263 -0.178658
v 0.246662 0.86893 0.216511
v -0.178658 0.299263 -0.148507
v -0.265907 0.86893 0.246662
v -0.265907 0.86893 -0.235756
v 0.216511 0.86893 0.246662
v -0.148507 0.228054 -0.129262
v 0.159413 0.228054 0.178658
v -0.148507 0.228054 0.178658
v 0.246662 0.797721 0.265907
v -0.173205 0.263658 0.184111
v -0.260454 0.833326 0.27136
v -0.173205 0.263658 -0.123809
v 0.221964 0.833326 0.27136
v -0.127414 0.252844 0.222693
v 0.267755 0.822511 0.309942
v 0.180506 0.252844 0.222693
v 0.210079 0.649482 0.619331
v 0.180506 0.222693 0.252844
v 0.267755 0.309942 0.822511
v -0.127414 0.222693 0.252844
v 0.210079 0.619331 0.649482
v -0.239361 0.858115 0.315395
v 0.243057 0.858115 0.315395
v -0.152112 0.288448 0.228146
v 0.185381 0.685086 0.624784
v -0.178658 0.277634 0.247483
v -0.208231 0.674272 0.644121
v -0.265907 0.847301 0.334732
v 0.158835 0.674272 0.644121
v -0.152112 0.228146 0.288448
v 0.243057 0.315395 0.858115
v -0.239361 0.315395 0.858115
v 0.185381 0.624784 0.685086
v -0.265907 0.334732 0.847301
v -0.208231 0.644121 0.674272
v -0.178658 0.247483 0.277634
v 0.158835 0.644121 0.674272
f 1 2 3
f 1 3 4
f 1 4 2
f 3 2 4
f 5 6 7
f 8 5 7
f 6 8 7
f 8 6 5
f 9 10 11
f 12 9 11
f 10 12 11
f 12 10 9
f 13 14 15
f 13 15 16
f 13 16 14
f 15 14 16
f 17 18 19
f 17 19 20
f 17 20 18
f 19 18 20
f 21 22 23
f 24 21 23
f 22 24 23
f 24 22 21
f 25 26 27
f 25 27 28
f 25 28 26
f 27 26 28
f 29 30 31
f 32 29 31
f 30 32 31
f 32 30 29
f 33 34 35
f 36 33 35
f 34 36 35
f 36 34 33
f 37 38 39
f 37 39 40
f 37 40 38
f 39 38 40
f 41 42 43
f 41 43 44
f 41 44 42
f 43 42 44
f 45 46 47
f 48 45 47
f 46 48 47
f 48 46 45
f 49 50 51
f 49 51 52
f 49 52 50
f 51 50 52
f 53 54 55
f 56 53 55
f 54 56 55
f 56 54 53
f 57 58 59
f 60 57 59
f 58 60 59
f 60 58 57
f 61 62 63
f 61 63 64
f 61 64 62
f 63 62 64
f 65 66 67
f 65 67 68
f 65 68 66
f 67 66 68
f 69 70 71
f 72 69 71
f 70 72 71
f 72 70 69
f 73 74 75
f 73 75 76
f 73 76 74
f 75 74 76
f 77 78 79
f 80 77 79
f 78 80 79
f 80 78 77
f 81 82 83
f 84 81 83
f 82 84 83
f 84 82 81
f 85 86 87
f 85 87 88
f 85 88 86
f 87 86 88
f 89 90 91
f 89 91 92
f 89 92 90
f 91 90 92
f 93 94 95
f 96 93 95
f 94 96 95
f 96 94 93
f 97 98 99
f 97 99 100
f 97 100 98
f 99 98 100
f 101 102 103
f 104 101 103
f 102 104 103
f 104 102 101
f 105 106 107
f 108 105 107
f 106 108 107
f 108 106 105
f 109 110 111
f 109 111 112
f 109 112 110
f 111 110 112
f 113 114 115
f 113 115 116
f 113 116 114
f 115 114 116
f 117 118 119
f 120 117 119
f 118 120 119
f 120 118 117
f 121 122 123
f 121 123 124
f 121 124 122
f 123 122 124
f 125 126 127
f 128 125 127
f 126 128 127
f 128 126 125
f 129 130 131
f 132 129 131
f 130 132 131
f 132 130 129
f 133 134 135
f 133 135 136
f 133 136 134
f 135 134 136
f 137 138 139
f 137 139 140
f 137 140 138
f 139 138 140
f 141 142 143
f 144 141 143
f 142 144 143
f 144 142 141
f 145 146 147
f 145 147 148
f 145 148 146
f 147 146 148
f 149 150 151
f 152 149 151
f 150 152 151
f 152 150 149
f 153 154 155
f 156 153 155
f 154 156 155
f 156 154 153
f 157 158 159
f 157 159 160
f 157 160 158
f 159 158 160
f 161 162 163
f 161 163 164
f 161 164 162
f 163 162 164
f 165 166 167
f 168 165 167
f 166 168 167
f 168 166 165
f 169 170 171
f 169 171 172
f 169 172 170
f 171 170 172
f 173 174 175
f 176 173 175
f 174 176 175
f 176 174 173
f 177 178 179
f 180 177 179
f 178 180 179
f 180 178 177
f 181 182 183
f 181 183 184
f 181 184 182
f 183 182 184
f 185 186 187
f 185 187 188
f 185 188 186
f 187 186 188
f 189 190 191
f 192 189 191
f 190 192 191
f 192 190 189
f 193 194 195
f 193 195 196
f 193 196 194
f 195 194 196
f 197 198 199
f 200 197 199
f 198 200 199
f 200 198 197
f 201 202 203
f 204 201 203
f 202 204 203
f 204 202 201
f 205 206 207
f 205 207 208
f 205 208 206
f 207 206 208
f 209 210 211
f 209 211 212
f 209 212 210
f 211 210 212
f 213 214 215
f 216 213 215
f 214 216 215
f 216 214 213
f 217 218 219
f 217 219 220
f 217 220 218
f 219 218 220
f 221 222 223
f 224 221 223
f 222 224 223
f 224 222 221
f 225 226 227
f 228 225 227
f 226 228 227
f 228 226 225
f 229 230 231
f 229 231 232
f 229 232 230
f 231 230 232
f 233 234 235
f 233 235 236
f 233 236 234
f 235 234 236
f 237 238 239
f 240 237 239
f 238 240 239
f 240 238 237
f 241 242 243
f 241 243 244
f 241 244 242
f 243 242 244
f 245 246 247
f 248 245 247
f 246 248 247
f 248 246 245
f 249 250 251
f 252 249 251
f 250 252 251
f 252 250 249
f 253 254 255
f 253 255 256
f 253 256 254
f 255 254 256
f 257 258 259
f 257 259 260
f 257 260 258
f 259 258 260
f 261 262 263
f 264 261 263
f 262 264 263
f 264 262 261
f 265 266 267
f 265 267 268
f 265 268 266
f 267 266 268
f 269 270 271
f 272 269 271
f 270 272 271
f 272 270 269
f 273 274 275
f 276 273 275
f 274 276 275
f 276 274 273
f 277 278 279
f 277 279 280
f 277 280 278
f 279 278 280
f 281 282 283
f 281 283 284
f 281 284 282
f 283 282 284
f 285 286 287
f 288 285 287
f 286 288 287
f 288 286 285
f 289 290 291
f 289 291 292
f 289 292 290
f 291 290 292
f 293 294 295
f 296 293 295
f 294 296 295
f 296 294 293
f 297 298 299
f 300 297 299
f 298 300 299
f 300 298 297
f 301 302 303
f 301 303 304
f 301 304 302
f 303 302 304
f 305 306 307
f 305 307 308
f 305 308 306
f 307 306 308
f 309 310 311
f 312 309 311
f 310 312 311
f 312 310 309
f 313 314 315
f 313 315 316
f 313 316 314
f 315 314 316
f 317 318 319
f 320 317 319
f 318 320 319
f 320 318 317
f 321 322 323
f 324 321 323
f 322 324 323
f 324 322 321
f 325 326 327
f 325 327 328
f 325 328 326
f 327 326 328
f 329 330 331
f 329 331 332
f 329 332 330
f 331 330 332
f 333 334 335
f 336 333 335
f 334 336 335
f 336 334 333
f 337 338 339
f 337 339 340
f 337 340 338
f 339 338 340
f 341 342 343
f 344 341 343
f 342 344 343
f 344 342 341
f 345 346 347
f 348 345 347
f 346 348 347
f 348 346 345
f 349 350 351
f 349 351 352
f 349 352 350
f 351 350 352
f 353 354 355
f 353 355 356
f 353 356 354
f 355 354 356
f 357 358 359
f 360 357 359
f 358 360 359
f 360 358 357
f 361 362 363
f 361 363 364
f 361 364 362
f 363 362 364
f 365 366 367
f 368 365 367
f 366 368 367
f 368 366 365
f 369 370 371
f 372 369 371
f 370 372 371
f 372 370 369
f 373 374 375
f 373 375 376
f 373 376 374
f 375 374 376
f 377 378 379
f 377 379 380
f 377 380 378
f 379 378 380
f 381 382 383
f 384 381 383
f 382 384 383
f 384 382 381
f 385 386 387
f 385 387 388
f 385 388 386
f 387 386 388
f 389 390 391
f 392 389 391
f 390 392 391
f 392 390 389
f 393 394 395
f 396 393 395
f 394 396 395
f 396 394 393
f 397 398 399
f 397 399 400
f 397 400 398
f 399 398 400
f 401 402 403
f 401 403 404
f 401 404 402
f 403 402 404
f 405 406 407
f 408 405 407
f 406 408 407
f 408 406 405
f 409 410 411
f 409 411 412
f 409 412 410
f 411 410 412
f 413 414 415
f 416 413 415
f 414 416 415
f 416 414 413
f 417 418 419
f 420 417 419
f 418 420 419
f 420 418 417
f 421 422 423
f 421 423 424
f 421 424 422
f 423 422 424
f 425 426 427
f 425 427 428
f 425 428 426
f 427 426 428
f 429 430 431
f 432 429 431
f 430 432 431
f 432 430 429
