# vtk DataFile Version 3.0
tetrahedral mesh, ball of 162 tetrahedra
ASCII
DATASET UNSTRUCTURED_GRID
POINTS 64 float
-0.57735 -0.57735 -0.57735
-0.229416 -0.688247 -0.688247
-0.301511 -0.301511 -0.904534
-0.19245 -0.19245 -0.19245
-0.301511 -0.904534 -0.301511
-0.688247 -0.229416 -0.688247
-0.904534 -0.301511 -0.301511
-0.688247 -0.688247 -0.229416
-0.19245 -0.19245 0.19245
-0.301511 -0.904534 0.301511
-0.904534 -0.301511 0.301511
-0.688247 -0.688247 0.229416
-0.301511 -0.301511 0.904534
-0.229416 -0.688247 0.688247
-0.688247 -0.229416 0.688247
-0.57735 -0.57735 0.57735
-0.301511 0.301511 -0.904534
-0.19245 0.19245 -0.19245
-0.688247 0.229416 -0.688247
-0.904534 0.301511 -0.301511
-0.19245 0.19245 0.19245
-0.904534 0.301511 0.301511
-0.301511 0.301511 0.904534
-0.688247 0.229416 0.688247
-0.229416 0.688247 -0.688247
-0.301511 0.904534 -0.301511
-0.57735 0.57735 -0.57735
-0.688247 0.688247 -0.229416
-0.301511 0.904534 0.301511
-0.688247 0.688247 0.229416
-0.229416 0.688247 0.688247
-0.57735 0.57735 0.57735
0.229416 -0.688247 -0.688247
0.301511 -0.301511 -0.904534
0.19245 -0.19245 -0.19245
0.301511 -0.904534 -0.301511
0.19245 -0.19245 0.19245
0.301511 -0.904534 0.301511
0.301511 -0.301511 0.904534
0.229416 -0.688247 0.688247
0.301511 0.301511 -0.904534
0.19245 0.19245 -0.19245
0.19245 0.19245 0.19245
0.301511 0.301511 0.904534
0.229416 0.688247 -0.688247
0.301511 0.904534 -0.301511
0.301511 0.904534 0.301511
0.229416 0.688247 0.688247
0.57735 -0.57735 -0.57735
0.688247 -0.229416 -0.688247
0.904534 -0.301511 -0.301511
0.688247 -0.688247 -0.229416
0.904534 -0.301511 0.301511
0.688247 -0.688247 0.229416
0.688247 -0.229416 0.688247
0.57735 -0.57735 0.57735
0.688247 0.229416 -0.688247
0.904534 0.301511 -0.301511
0.904534 0.301511 0.301511
0.688247 0.229416 0.688247
0.57735 0.57735 -0.57735
0.688247 0.688247 -0.229416
0.688247 0.688247 0.229416
0.57735 0.57735 0.57735
CELLS 162 810
4 0 1 2 3
4 0 4 1 3
4 0 2 5 3
4 0 5 6 3
4 0 7 4 3
4 0 6 7 3
4 7 4 3 8
4 7 9 4 8
4 7 3 6 8
4 7 6 10 8
4 7 11 9 8
4 7 10 11 8
4 11 9 8 12
4 11 13 9 12
4 11 8 10 12
4 11 10 14 12
4 11 15 13 12
4 11 14 15 12
4 5 2 16 17
4 5 3 2 17
4 5 16 18 17
4 5 18 19 17
4 5 6 3 17
4 5 19 6 17
4 6 3 17 20
4 6 8 3 20
4 6 17 19 20
4 6 19 21 20
4 6 10 8 20
4 6 21 10 20
4 10 8 20 22
4 10 12 8 22
4 10 20 21 22
4 10 21 23 22
4 10 14 12 22
4 10 23 14 22
4 18 16 24 25
4 18 17 16 25
4 18 24 26 25
4 18 26 27 25
4 18 19 17 25
4 18 27 19 25
4 19 17 25 28
4 19 20 17 28
4 19 25 27 28
4 19 27 29 28
4 19 21 20 28
4 19 29 21 28
4 21 20 28 30
4 21 22 20 30
4 21 28 29 30
4 21 29 31 30
4 21 23 22 30
4 21 31 23 30
4 1 32 33 34
4 1 35 32 34
4 1 33 2 34
4 1 2 3 34
4 1 4 35 34
4 1 3 4 34
4 4 35 34 36
4 4 37 35 36
4 4 34 3 36
4 4 3 8 36
4 4 9 37 36
4 4 8 9 36
4 9 37 36 38
4 9 39 37 38
4 9 36 8 38
4 9 8 12 38
4 9 13 39 38
4 9 12 13 38
4 2 33 40 41
4 2 34 33 41
4 2 40 16 41
4 2 16 17 41
4 2 3 34 41
4 2 17 3 41
4 3 34 41 42
4 3 36 34 42
4 3 41 17 42
4 3 17 20 42
4 3 8 36 42
4 3 20 8 42
4 8 36 42 43
4 8 38 36 43
4 8 42 20 43
4 8 20 22 43
4 8 12 38 43
4 8 22 12 43
4 16 40 44 45
4 16 41 40 45
4 16 44 24 45
4 16 24 25 45
4 16 17 41 45
4 16 25 17 45
4 17 41 45 46
4 17 42 41 46
4 17 45 25 46
4 17 25 28 46
4 17 20 42 46
4 17 28 20 46
4 20 42 46 47
4 20 43 42 47
4 20 46 28 47
4 20 28 30 47
4 20 22 43 47
4 20 30 22 47
4 32 48 49 50
4 32 51 48 50
4 32 49 33 50
4 32 33 34 50
4 32 35 51 50
4 32 34 35 50
4 35 51 50 52
4 35 53 51 52
4 35 50 34 52
4 35 34 36 52
4 35 37 53 52
4 35 36 37 52
4 37 53 52 54
4 37 55 53 54
4 37 52 36 54
4 37 36 38 54
4 37 39 55 54
4 37 38 39 54
4 33 49 56 57
4 33 50 49 57
4 33 56 40 57
4 33 40 41 57
4 33 34 50 57
4 33 41 34 57
4 34 50 57 58
4 34 52 50 58
4 34 57 41 58
4 34 41 42 58
4 34 36 52 58
4 34 42 36 58
4 36 52 58 59
4 36 54 52 59
4 36 58 42 59
4 36 42 43 59
4 36 38 54 59
4 36 43 38 59
4 40 56 60 61
4 40 57 56 61
4 40 60 44 61
4 40 44 45 61
4 40 41 57 61
4 40 45 41 61
4 41 57 61 62
4 41 58 57 62
4 41 61 45 62
4 41 45 46 62
4 41 42 58 62
4 41 46 42 62
4 42 58 62 63
4 42 59 58 63
4 42 62 46 63
4 42 46 47 63
4 42 43 59 63
4 42 47 43 63
CELL_TYPES 162
10
10
10
10
10
10
10
10
10
10
10
10
10
10
10
10
10
10
10
10
10
10
10
10
10
10
10
10
10
10
10
10
10
10
10
10
10
10
10
10
10
10
10
10
10
10
10
10
10
10
10
10
10
10
10
10
10
10
10
10
10
10
10
10
10
10
10
10
10
10
10
10
10
10
10
10
10
10
10
10
10
10
10
10
10
10
10
10
10
10
10
10
10
10
10
10
10
10
10
10
10
10
10
10
10
10
10
10
10
10
10
10
10
10
10
10
10
10
10
10
10
10
10
10
10
10
10
10
10
10
10
10
10
10
10
10
10
10
10
10
10
10
10
10
10
10
10
10
10
10
10
10
10
10
10
10
10
10
10
10
10
10
