<?xml version="1.0"?>
<VTKFile type="PolyData" version="0.1" byte_order="LittleEndian">
  <PolyData>
    <Piece NumberOfPoints="642" NumberOfVerts="0" NumberOfLines="0" NumberOfStrips="0" NumberOfPolys="1280">
      <Points>
        <DataArray type="Float32" Name="Points" NumberOfComponents="3" format="ascii">
-0.482137 0.780114 0
0.495723 0.802096 0
-0.495723 -0.802096 0
0.482137 -0.780114 0
0 -0.497001 0.804164
0 0.497001 0.804164
0 -0.480859 -0.778046
0 0.480859 -0.778046
0.775151 0 -0.47907
0.80706 0 0.49879
-0.775151 0 -0.47907
-0.80706 0 0.49879
-0.749986 0.463517 0.286469
-0.459922 0.284247 0.74417
-0.288762 0.755989 0.467227
0.297415 0.778642 0.481227
0 0.93 0
0.286009 0.748782 -0.462773
-0.277357 0.726129 -0.448773
-0.443423 0.27405 -0.717473
-0.727681 0.449732 -0.277949
-0.93 0 0
0.486577 0.300721 0.787298
0.77709 0.480268 0.296822
-0.486577 -0.300721 0.787298
0 0 0.939873
-0.754786 -0.466483 -0.288303
-0.77709 -0.480268 0.296822
0 0 -0.920127
-0.470078 -0.290524 -0.760602
0.754786 0.466483 -0.288303
0.470078 0.290524 -0.760602
0.749986 -0.463517 0.286469
0.459922 -0.284247 0.74417
0.288762 -0.755989 0.467227
-0.297415 -0.778642 0.481227
0 -0.93 0
-0.286009 -0.748782 -0.462773
0.277357 -0.726129 -0.448773
0.443423 -0.27405 -0.717473
0.727681 -0.449732 -0.277949
0.93 0 0
-0.636842 0.64443 0.14744
-0.54228 0.634913 0.392398
-0.403649 0.802544 0.241779
-0.657389 0.150405 0.649649
-0.635843 0.392972 0.543075
-0.809643 0.243917 0.407219
-0.150348 0.649403 0.65714
-0.390859 0.540154 0.632424
-0.239565 0.399953 0.795196
-0.1528 0.894506 0.247235
-0.253714 0.89311 0
0.154363 0.666748 0.674692
0 0.80706 0.49879
0.254562 0.896095 0
0.153305 0.897464 0.248053
0.413779 0.822687 0.247847
-0.14887 0.871502 -0.240877
-0.393253 0.781877 -0.235552
0.403384 0.802019 -0.24162
0.149375 0.874459 -0.241695
-0.144393 0.623684 -0.631115
0 0.775151 -0.47907
0.148409 0.641029 -0.648666
-0.522155 0.61135 -0.377835
-0.626064 0.633523 -0.144944
-0.231775 0.386948 -0.76934
-0.374955 0.518175 -0.60669
-0.779784 0.234922 -0.392201
-0.609506 0.376695 -0.52058
-0.631224 0.144419 -0.623792
-0.780114 0.482137 0
-0.882587 0 -0.250724
-0.874796 0.241788 -0.149433
-0.889731 0.245916 0.151984
-0.906619 0 0.257551
0.571125 0.668685 0.41327
0.664368 0.672283 0.153813
0.251624 0.420085 0.835224
0.416151 0.575106 0.673346
0.82478 0.248477 0.414832
0.670529 0.41441 0.5727
0.674582 0.154338 0.66664
-0.24448 0.151097 0.884536
0 0.257266 0.905613
-0.674582 -0.154338 0.66664
-0.497001 0 0.804164
0 -0.257266 0.905613
-0.250694 -0.154937 0.907019
-0.251624 -0.420085 0.835224
-0.894169 -0.247142 0.152742
-0.82478 -0.248477 0.414832
-0.794921 -0.239482 -0.399814
-0.879234 -0.243014 -0.150191
-0.664368 -0.672283 0.153813
-0.802096 -0.495723 0
-0.653589 -0.661377 -0.151317
-0.480859 0 -0.778046
-0.648417 -0.148352 -0.640783
0 0.25101 -0.883592
-0.238236 0.147238 -0.861946
-0.243834 -0.40708 -0.809367
-0.24445 -0.151079 -0.88443
0 -0.25101 -0.883592
0.400246 0.553126 -0.647612
0.243834 0.40708 -0.809367
0.653589 0.661377 -0.151317
0.551 0.645122 -0.398708
0.648417 0.148352 -0.640783
0.644192 0.398133 -0.550206
0.794921 0.239482 -0.399814
0.636842 -0.64443 0.14744
0.54228 -0.634913 0.392398
0.403649 -0.802544 0.241779
0.657389 -0.150405 0.649649
0.635843 -0.392972 0.543075
0.809643 -0.243917 0.407219
0.150348 -0.649403 0.65714
0.390859 -0.540154 0.632424
0.239565 -0.399953 0.795196
0.1528 -0.894506 0.247235
0.253714 -0.89311 0
-0.154363 -0.666748 0.674692
0 -0.80706 0.49879
-0.254562 -0.896095 0
-0.153305 -0.897464 0.248053
-0.413779 -0.822687 0.247847
0.14887 -0.871502 -0.240877
0.393253 -0.781877 -0.235552
-0.403384 -0.802019 -0.24162
-0.149375 -0.874459 -0.241695
0.144393 -0.623684 -0.631115
0 -0.775151 -0.47907
-0.148409 -0.641029 -0.648666
0.522155 -0.61135 -0.377835
0.626064 -0.633523 -0.144944
0.231775 -0.386948 -0.76934
0.374955 -0.518175 -0.60669
0.779784 -0.234922 -0.392201
0.609506 -0.376695 -0.52058
0.631224 -0.144419 -0.623792
0.780114 -0.482137 0
0.882587 0 -0.250724
0.874796 -0.241788 -0.149433
0.889731 -0.245916 0.151984
0.906619 0 0.257551
0.24448 -0.151097 0.884536
0.497001 0 0.804164
0.250694 0.154937 0.907019
-0.571125 -0.668685 0.41327
-0.416151 -0.575106 0.673346
-0.670529 -0.41441 0.5727
-0.400246 -0.553126 -0.647612
-0.551 -0.645122 -0.398708
-0.644192 -0.398133 -0.550206
0.480859 0 -0.778046
0.238236 -0.147238 -0.861946
0.24445 0.151079 -0.88443
0.894169 0.247142 0.152742
0.879234 0.243014 -0.150191
0.802096 0.495723 0
-0.564299 0.718473 0.074324
-0.526987 0.731229 0.196516
-0.447989 0.799846 0.121328
-0.652452 0.555009 0.343014
-0.596588 0.647176 0.272767
-0.699169 0.559246 0.218497
-0.350056 0.787696 0.35806
-0.478002 0.725587 0.320587
-0.420922 0.702728 0.43431
-0.740181 0.07657 0.581349
-0.74322 0.199739 0.535629
-0.816044 0.123785 0.457061
-0.553789 0.34226 0.651018
-0.652324 0.274937 0.601334
-0.562625 0.219817 0.703394
-0.787387 0.35792 0.349919
-0.72996 0.322519 0.480882
-0.702461 0.434145 0.420762
-0.076185 0.578429 0.736463
-0.197567 0.529805 0.73514
-0.122267 0.451455 0.806034
-0.344364 0.655019 0.557193
-0.274042 0.599376 0.6502
-0.221622 0.709167 0.567244
-0.351978 0.34411 0.774316
-0.317991 0.474132 0.719713
-0.429093 0.415867 0.694288
-0.595725 0.519876 0.472999
-0.518026 0.471316 0.593605
-0.472861 0.595551 0.519725
-0.333551 0.860631 0.122586
-0.372499 0.845044 0
-0.224317 0.837401 0.362953
-0.282185 0.858232 0.247362
-0.128348 0.921484 0
-0.205912 0.904028 0.124223
-0.077033 0.925121 0.124641
0.077409 0.58772 0.748292
0 0.666647 0.67459
0.149456 0.8027 0.496096
0.077414 0.744364 0.591747
0.22844 0.730985 0.584695
-0.076615 0.736676 0.585636
-0.147358 0.791433 0.489132
0.377742 0.856937 0
0.33736 0.87046 0.123986
0.45928 0.820006 0.124386
0.077007 0.924809 0.124599
0.206359 0.90599 0.124493
0.128243 0.920733 0
0.359584 0.809135 0.367805
0.285472 0.868231 0.250244
0.227335 0.848665 0.367835
-0.07777 0.862488 0.377506
0.078069 0.865801 0.378956
0 0.908179 0.251015
-0.328945 0.848747 -0.120893
-0.441781 0.788763 -0.119647
-0.075964 0.912291 -0.122913
-0.203059 0.8915 -0.122501
-0.337988 0.760541 -0.345716
-0.274869 0.835983 -0.24095
-0.216604 0.808607 -0.350473
0.453072 0.808922 -0.122705
0.332754 0.858576 -0.122293
0.219622 0.819871 -0.355355
0.278157 0.845982 -0.243832
0.347515 0.781979 -0.355461
0.203506 0.893462 -0.122771
0.075938 0.911979 -0.122871
-0.073412 0.557374 -0.709656
0 0.64076 -0.648394
0.074636 0.566665 -0.721485
-0.141512 0.760031 -0.469725
-0.073509 0.706817 -0.561898
-0.212541 0.680108 -0.544
0.219359 0.701926 -0.561451
0.074309 0.714504 -0.56801
0.14361 0.771298 -0.476688
0 0.884603 -0.244498
0.075351 0.835659 -0.365763
-0.075053 0.832347 -0.364313
-0.515478 0.715259 -0.192224
-0.559364 0.71219 -0.073674
-0.404604 0.675485 -0.417473
-0.462515 0.70208 -0.3102
-0.682369 0.545808 -0.213247
-0.579331 0.628456 -0.264877
-0.630162 0.536048 -0.331296
-0.118353 0.437003 -0.780231
-0.190368 0.5105 -0.708352
-0.412566 0.399848 -0.667545
-0.306147 0.456471 -0.692905
-0.340048 0.332446 -0.748071
-0.263071 0.57538 -0.62417
-0.330125 0.627934 -0.534153
-0.784505 0.119001 -0.439397
-0.712969 0.191609 -0.513827
-0.710169 0.073465 -0.557777
-0.675613 0.417552 -0.404681
-0.700733 0.309605 -0.461628
-0.760629 0.345756 -0.338028
-0.541231 0.211459 -0.676647
-0.625592 0.26367 -0.576691
-0.531569 0.328528 -0.624897
-0.453302 0.570918 -0.498227
-0.496544 0.45177 -0.568988
-0.571645 0.498862 -0.45388
-0.640403 0.648033 0
-0.76331 0.471751 -0.142122
-0.708754 0.563439 -0.073711
-0.715012 0.568414 0.074362
-0.776041 0.47962 0.144493
-0.8358 0 -0.368424
-0.843192 0.120102 -0.326792
-0.914784 0.123249 -0.076172
-0.888097 0.122034 -0.202283
-0.914449 0 -0.127368
-0.835173 0.240716 -0.274603
-0.811023 0.35152 -0.217251
-0.871603 0.124149 0.337804
-0.866181 0 0.381817
-0.830869 0.360122 0.222568
-0.859937 0.247854 0.282745
-0.927767 0 0.129223
-0.908144 0.124789 0.20685
-0.922812 0.12433 0.07684
-0.839268 0.367343 -0.075677
-0.895066 0.24739 0
-0.846696 0.370594 0.076347
0.54705 0.759068 0.203998
0.58573 0.745758 0.077147
0.439818 0.734275 0.453807
0.497471 0.755141 0.333644
0.728724 0.582887 0.227734
0.624855 0.67784 0.285691
0.685056 0.582744 0.360155
0.12568 0.464059 0.828537
0.205854 0.552029 0.765976
0.458714 0.444574 0.742215
0.337698 0.503515 0.764315
0.373474 0.365125 0.821605
0.287498 0.628806 0.682126
0.361327 0.687284 0.584639
0.824263 0.125032 0.461665
0.761358 0.204613 0.548701
0.747779 0.077356 0.587317
0.734147 0.453728 0.439741
0.756487 0.334239 0.498358
0.809046 0.367765 0.359544
0.587463 0.229522 0.734446
0.680704 0.286898 0.627495
0.587223 0.362924 0.690322
0.501576 0.631717 0.551286
0.552969 0.503108 0.633646
0.63099 0.550651 0.500999
-0.122571 0.33351 0.860524
0 0.380456 0.863095
-0.356535 0.220351 0.822593
-0.243899 0.278234 0.846216
0 0.129713 0.931288
-0.123862 0.205313 0.901399
-0.124683 0.077058 0.925427
-0.747779 -0.077356 0.587317
-0.674668 0 0.666725
-0.498963 -0.15032 0.807339
-0.592133 -0.077465 0.744849
-0.587463 -0.229522 0.734446
-0.582825 0.076247 0.73314
-0.483119 0.145547 0.781702
0 -0.380456 0.863095
-0.125703 -0.342032 0.882514
-0.12568 -0.464059 0.828537
-0.125596 -0.077622 0.932203
-0.126125 -0.209065 0.917869
0 -0.129713 0.931288
-0.373474 -0.365125 0.821605
-0.254259 -0.290052 0.88216
-0.372639 -0.230304 0.859749
-0.37377 0.077001 0.853952
-0.380131 -0.078311 0.868486
-0.250785 0 0.907349
-0.876014 -0.124777 0.339513
-0.824263 -0.125032 0.461665
-0.922317 -0.124264 0.076799
-0.909393 -0.12496 0.207134
-0.809046 -0.367765 0.359544
-0.869041 -0.250478 0.285739
-0.846249 -0.366788 0.226688
-0.792724 -0.120248 -0.444
-0.847603 -0.12073 -0.328502
-0.826403 -0.358187 -0.221371
-0.844277 -0.24334 -0.277596
-0.782288 -0.355602 -0.347653
-0.889346 -0.122205 -0.202568
-0.914288 -0.123182 -0.076131
-0.58573 -0.745758 0.077147
-0.667004 -0.674951 0
-0.580795 -0.739475 -0.076497
-0.799421 -0.494069 0.148846
-0.742426 -0.590207 0.077213
-0.728724 -0.582887 0.227734
-0.711924 -0.569449 -0.222483
-0.736168 -0.585232 -0.076562
-0.786689 -0.486201 -0.146475
-0.897716 -0.248123 0
-0.851451 -0.372675 -0.076775
-0.85888 -0.375927 0.077445
-0.648316 0 -0.640683
-0.717768 -0.074251 -0.563745
-0.466858 0.140648 -0.755392
-0.561513 0.073459 -0.706332
-0.56607 -0.221163 -0.7077
-0.57082 -0.074677 -0.71804
-0.482702 -0.145421 -0.781029
0 0.369785 -0.838885
-0.119176 0.324273 -0.836693
-0.121917 0.075349 -0.904897
-0.120869 0.200353 -0.879621
0 0.126878 -0.910929
-0.236935 0.270289 -0.822054
-0.345669 0.213635 -0.797524
-0.121766 -0.449607 -0.802734
-0.122308 -0.332796 -0.858682
0 -0.369785 -0.838885
-0.361774 -0.223588 -0.834679
-0.247295 -0.282108 -0.857998
-0.361543 -0.353462 -0.795359
0 -0.126878 -0.910929
-0.123132 -0.204104 -0.896091
-0.12283 -0.075913 -0.911673
-0.363138 0.07481 -0.829661
-0.244728 0 -0.885433
-0.3695 -0.076121 -0.844196
0.198655 0.532723 -0.739188
0.121766 0.449607 -0.802734
0.347087 0.660199 -0.561599
0.276527 0.60481 -0.656096
0.361543 0.353462 -0.795359
0.325853 0.485854 -0.737507
0.442186 0.428556 -0.715472
0.580795 0.739475 -0.076497
0.535541 0.743099 -0.199706
0.662767 0.563783 -0.348437
0.607598 0.65912 -0.277801
0.711924 0.569449 -0.222483
0.481985 0.731633 -0.323258
0.4235 0.707031 -0.436969
0.717768 0.074251 -0.563745
0.731107 0.196484 -0.526899
0.792724 0.120248 -0.444
0.565003 0.349191 -0.664201
0.653972 0.275632 -0.602853
0.56607 0.221163 -0.7077
0.782288 0.355602 -0.347653
0.72726 0.321326 -0.479104
0.707299 0.437135 -0.42366
0.482017 0.607083 -0.529788
0.606909 0.529637 -0.481879
0.531487 0.483563 -0.60903
0.564299 -0.718473 0.074324
0.526987 -0.731229 0.196516
0.447989 -0.799846 0.121328
0.652452 -0.555009 0.343014
0.596588 -0.647176 0.272767
0.699169 -0.559246 0.218497
0.350056 -0.787696 0.35806
0.478002 -0.725587 0.320587
0.420922 -0.702728 0.43431
0.740181 -0.07657 0.581349
0.74322 -0.199739 0.535629
0.816044 -0.123785 0.457061
0.553789 -0.34226 0.651018
0.652324 -0.274937 0.601334
0.562625 -0.219817 0.703394
0.787387 -0.35792 0.349919
0.72996 -0.322519 0.480882
0.702461 -0.434145 0.420762
0.076185 -0.578429 0.736463
0.197567 -0.529805 0.73514
0.122267 -0.451455 0.806034
0.344364 -0.655019 0.557193
0.274042 -0.599376 0.6502
0.221622 -0.709167 0.567244
0.351978 -0.34411 0.774316
0.317991 -0.474132 0.719713
0.429093 -0.415867 0.694288
0.595725 -0.519876 0.472999
0.518026 -0.471316 0.593605
0.472861 -0.595551 0.519725
0.333551 -0.860631 0.122586
0.372499 -0.845044 0
0.224317 -0.837401 0.362953
0.282185 -0.858232 0.247362
0.128348 -0.921484 0
0.205912 -0.904028 0.124223
0.077033 -0.925121 0.124641
-0.077409 -0.58772 0.748292
0 -0.666647 0.67459
-0.149456 -0.8027 0.496096
-0.077414 -0.744364 0.591747
-0.22844 -0.730985 0.584695
0.076615 -0.736676 0.585636
0.147358 -0.791433 0.489132
-0.377742 -0.856937 0
-0.33736 -0.87046 0.123986
-0.45928 -0.820006 0.124386
-0.077007 -0.924809 0.124599
-0.206359 -0.90599 0.124493
-0.128243 -0.920733 0
-0.359584 -0.809135 0.367805
-0.285472 -0.868231 0.250244
-0.227335 -0.848665 0.367835
0.07777 -0.862488 0.377506
-0.078069 -0.865801 0.378956
0 -0.908179 0.251015
0.328945 -0.848747 -0.120893
0.441781 -0.788763 -0.119647
0.075964 -0.912291 -0.122913
0.203059 -0.8915 -0.122501
0.337988 -0.760541 -0.345716
0.274869 -0.835983 -0.24095
0.216604 -0.808607 -0.350473
-0.453072 -0.808922 -0.122705
-0.332754 -0.858576 -0.122293
-0.219622 -0.819871 -0.355355
-0.278157 -0.845982 -0.243832
-0.347515 -0.781979 -0.355461
-0.203506 -0.893462 -0.122771
-0.075938 -0.911979 -0.122871
0.073412 -0.557374 -0.709656
0 -0.64076 -0.648394
-0.074636 -0.566665 -0.721485
0.141512 -0.760031 -0.469725
0.073509 -0.706817 -0.561898
0.212541 -0.680108 -0.544
-0.219359 -0.701926 -0.561451
-0.074309 -0.714504 -0.56801
-0.14361 -0.771298 -0.476688
0 -0.884603 -0.244498
-0.075351 -0.835659 -0.365763
0.075053 -0.832347 -0.364313
0.515478 -0.715259 -0.192224
0.559364 -0.71219 -0.073674
0.404604 -0.675485 -0.417473
0.462515 -0.70208 -0.3102
0.682369 -0.545808 -0.213247
0.579331 -0.628456 -0.264877
0.630162 -0.536048 -0.331296
0.118353 -0.437003 -0.780231
0.190368 -0.5105 -0.708352
0.412566 -0.399848 -0.667545
0.306147 -0.456471 -0.692905
0.340048 -0.332446 -0.748071
0.263071 -0.57538 -0.62417
0.330125 -0.627934 -0.534153
0.784505 -0.119001 -0.439397
0.712969 -0.191609 -0.513827
0.710169 -0.073465 -0.557777
0.675613 -0.417552 -0.404681
0.700733 -0.309605 -0.461628
0.760629 -0.345756 -0.338028
0.541231 -0.211459 -0.676647
0.625592 -0.26367 -0.576691
0.531569 -0.328528 -0.624897
0.453302 -0.570918 -0.498227
0.496544 -0.45177 -0.568988
0.571645 -0.498862 -0.45388
0.640403 -0.648033 0
0.76331 -0.471751 -0.142122
0.708754 -0.563439 -0.073711
0.715012 -0.568414 0.074362
0.776041 -0.47962 0.144493
0.8358 0 -0.368424
0.843192 -0.120102 -0.326792
0.914784 -0.123249 -0.076172
0.888097 -0.122034 -0.202283
0.914449 0 -0.127368
0.835173 -0.240716 -0.274603
0.811023 -0.35152 -0.217251
0.871603 -0.124149 0.337804
0.866181 0 0.381817
0.830869 -0.360122 0.222568
0.859937 -0.247854 0.282745
0.927767 0 0.129223
0.908144 -0.124789 0.20685
0.922812 -0.12433 0.07684
0.839268 -0.367343 -0.075677
0.895066 -0.24739 0
0.846696 -0.370594 0.076347
0.122571 -0.33351 0.860524
0.356535 -0.220351 0.822593
0.243899 -0.278234 0.846216
0.123862 -0.205313 0.901399
0.124683 -0.077058 0.925427
0.674668 0 0.666725
0.498963 0.15032 0.807339
0.592133 0.077465 0.744849
0.582825 -0.076247 0.73314
0.483119 -0.145547 0.781702
0.125703 0.342032 0.882514
0.125596 0.077622 0.932203
0.126125 0.209065 0.917869
0.254259 0.290052 0.88216
0.372639 0.230304 0.859749
0.37377 -0.077001 0.853952
0.380131 0.078311 0.868486
0.250785 0 0.907349
-0.54705 -0.759068 0.203998
-0.439818 -0.734275 0.453807
-0.497471 -0.755141 0.333644
-0.624855 -0.67784 0.285691
-0.685056 -0.582744 0.360155
-0.205854 -0.552029 0.765976
-0.458714 -0.444574 0.742215
-0.337698 -0.503515 0.764315
-0.287498 -0.628806 0.682126
-0.361327 -0.687284 0.584639
-0.761358 -0.204613 0.548701
-0.734147 -0.453728 0.439741
-0.756487 -0.334239 0.498358
-0.680704 -0.286898 0.627495
-0.587223 -0.362924 0.690322
-0.501576 -0.631717 0.551286
-0.552969 -0.503108 0.633646
-0.63099 -0.550651 0.500999
-0.198655 -0.532723 -0.739188
-0.347087 -0.660199 -0.561599
-0.276527 -0.60481 -0.656096
-0.325853 -0.485854 -0.737507
-0.442186 -0.428556 -0.715472
-0.535541 -0.743099 -0.199706
-0.662767 -0.563783 -0.348437
-0.607598 -0.65912 -0.277801
-0.481985 -0.731633 -0.323258
-0.4235 -0.707031 -0.436969
-0.731107 -0.196484 -0.526899
-0.565003 -0.349191 -0.664201
-0.653972 -0.275632 -0.602853
-0.72726 -0.321326 -0.479104
-0.707299 -0.437135 -0.42366
-0.482017 -0.607083 -0.529788
-0.606909 -0.529637 -0.481879
-0.531487 -0.483563 -0.60903
0.648316 0 -0.640683
0.466858 -0.140648 -0.755392
0.561513 -0.073459 -0.706332
0.57082 0.074677 -0.71804
0.482702 0.145421 -0.781029
0.119176 -0.324273 -0.836693
0.121917 -0.075349 -0.904897
0.120869 -0.200353 -0.879621
0.236935 -0.270289 -0.822054
0.345669 -0.213635 -0.797524
0.122308 0.332796 -0.858682
0.361774 0.223588 -0.834679
0.247295 0.282108 -0.857998
0.123132 0.204104 -0.896091
0.12283 0.075913 -0.911673
0.363138 -0.07481 -0.829661
0.244728 0 -0.885433
0.3695 0.076121 -0.844196
0.876014 0.124777 0.339513
0.922317 0.124264 0.076799
0.909393 0.12496 0.207134
0.869041 0.250478 0.285739
0.846249 0.366788 0.226688
0.847603 0.12073 -0.328502
0.826403 0.358187 -0.221371
0.844277 0.24334 -0.277596
0.889346 0.122205 -0.202568
0.914288 0.123182 -0.076131
0.667004 0.674951 0
0.799421 0.494069 0.148846
0.742426 0.590207 0.077213
0.736168 0.585232 -0.076562
0.786689 0.486201 -0.146475
0.897716 0.248123 0
0.851451 0.372675 -0.076775
0.85888 0.375927 0.077445
        </DataArray>
      </Points>
      <PointData Scalars="scalar">
        <DataArray type="Float32" Name="scalar" format="ascii" RangeMin="-1.56639" RangeMax="1.56639">
-0.404782
0.404782
0.404782
-0.404782
0.480936
0.480936
-0.480936
-0.480936
-0.587571
0.587571
-0.587571
0.587571
-0.092945
-0.318161
0.139535
1.016735
0
-0.139535
-1.016735
-1.35192
-0.956647
0
1.35192
0.956647
1.35192
0.309301
0.092945
0.956647
-0.309301
0.318161
0.092945
0.318161
-0.092945
-0.318161
0.139535
1.016735
0
-0.139535
-1.016735
-1.35192
-0.956647
0
-0.378113
-0.232382
0.009543
0.200174
-0.190044
0.267312
0.189063
-0.345691
-0.257299
0.330173
-0.0486
0.972277
0.587571
0.0486
0.427593
0.741008
-0.427593
-0.741008
-0.009543
-0.330173
-0.972277
-0.587571
-0.189063
-1.304995
-0.864814
-1.196287
-1.51716
-0.817013
-1.388958
-0.96739
-0.404782
-0.391325
-0.31906
0.172876
0.391325
1.304995
0.864814
1.196287
1.51716
0.817013
1.388958
0.96739
0.001746
0.358583
0.96739
0.480936
0.358583
0.742351
1.196287
0.31906
0.817013
-0.267312
-0.172876
0.864814
0.404782
0.378113
-0.480936
-0.200174
-0.358583
-0.742351
0.257299
-0.001746
-0.358583
0.345691
0.257299
0.378113
0.232382
-0.200174
0.190044
-0.267312
-0.378113
-0.232382
0.009543
0.200174
-0.190044
0.267312
0.189063
-0.345691
-0.257299
0.330173
-0.0486
0.972277
0.587571
0.0486
0.427593
0.741008
-0.427593
-0.741008
-0.009543
-0.330173
-0.972277
-0.587571
-0.189063
-1.304995
-0.864814
-1.196287
-1.51716
-0.817013
-1.388958
-0.96739
-0.404782
-0.391325
-0.31906
0.172876
0.391325
0.001746
0.480936
0.742351
1.304995
1.51716
1.388958
0.345691
0.232382
0.190044
-0.480936
-0.742351
-0.001746
0.31906
-0.172876
0.404782
-0.419699
-0.234559
-0.16437
-0.228503
-0.2664
-0.263359
0.106118
-0.120884
-0.088926
0.447891
0.239373
0.422321
-0.292028
-0.036753
-0.088906
0.094643
0.053981
-0.099981
0.299306
-0.079992
0.059761
-0.114748
-0.131489
0.149515
-0.390569
-0.355775
-0.437808
-0.270947
-0.373683
-0.279368
0.034831
-0.203583
0.308179
0.209417
0.011881
0.171259
0.208419
0.772096
0.576875
0.795508
0.753818
1.050456
0.445132
0.375379
0.203583
0.367959
0.565822
0.198529
0.234871
-0.011881
0.901955
0.55129
0.704228
0.460293
0.573971
0.383148
-0.367959
-0.565822
-0.198529
-0.234871
-0.901955
-0.55129
-0.704228
0.16437
-0.034831
-0.308179
-0.209417
-0.106118
-0.171259
-0.208419
-0.772096
-0.576875
-0.299306
-0.795508
-0.753818
-1.050456
-0.149515
-0.445132
-0.375379
-0.383148
-0.460293
-0.573971
-0.865728
-0.670818
-1.214984
-1.060875
-0.957104
-1.101428
-1.216016
-0.874819
-1.138739
-1.543158
-1.427726
-1.364865
-1.292622
-1.314719
-0.720021
-0.956239
-0.751574
-1.209679
-1.114724
-0.898667
-1.193384
-1.229171
-1.449292
-1.472917
-1.56639
-1.437678
-0.592769
-0.673246
-0.676015
-0.424727
-0.198517
-0.520073
-0.556221
-0.119471
-0.345191
-0.210621
-0.579008
-0.619287
0.406723
0.520073
0.078502
0.267715
0.210621
0.304693
0.135175
-0.336481
-0.043071
-0.081588
0.865728
0.670818
1.214984
1.060875
0.957104
1.101428
1.216016
0.874819
1.138739
1.543158
1.427726
1.364865
1.292622
1.314719
0.720021
0.956239
0.751574
1.209679
1.114724
0.898667
1.193384
1.229171
1.449292
1.472917
1.56639
1.437678
0.031209
0.41443
-0.21248
-0.201417
0.321985
0.086025
0.218136
0.751574
0.58033
0.96849
0.773292
1.193384
0.303174
0.01256
0.41443
0.776518
0.874819
0.433058
0.619952
0.321985
1.364865
1.027564
1.093918
0.167377
0.666121
0.356174
0.556221
0.720021
0.119471
0.345191
0.898667
0.579008
0.619287
-0.422321
-0.406723
-0.078502
-0.267715
-0.094643
-0.304693
-0.135175
0.670818
0.592769
0.419699
0.673246
0.676015
0.957104
0.263359
0.424727
0.198517
0.043071
0.081588
0.336481
-0.58033
-0.447891
-0.96849
-0.773292
0.088906
-0.303174
-0.01256
-0.41443
-0.776518
-0.433058
-0.619952
-0.321985
-1.027564
-1.093918
-0.059761
-0.031209
-0.41443
0.21248
0.201417
0.390569
-0.321985
-0.086025
-0.218136
-0.666121
-0.356174
-0.167377
0.079992
-0.059761
0.114748
0.131489
0.390569
0.355775
0.437808
0.419699
0.234559
0.228503
0.2664
0.263359
0.120884
0.088926
-0.447891
-0.239373
-0.422321
0.292028
0.036753
0.088906
-0.094643
-0.053981
0.099981
0.279368
0.270947
0.373683
-0.419699
-0.234559
-0.16437
-0.228503
-0.2664
-0.263359
0.106118
-0.120884
-0.088926
0.447891
0.239373
0.422321
-0.292028
-0.036753
-0.088906
0.094643
0.053981
-0.099981
0.299306
-0.079992
0.059761
-0.114748
-0.131489
0.149515
-0.390569
-0.355775
-0.437808
-0.270947
-0.373683
-0.279368
0.034831
-0.203583
0.308179
0.209417
0.011881
0.171259
0.208419
0.772096
0.576875
0.795508
0.753818
1.050456
0.445132
0.375379
0.203583
0.367959
0.565822
0.198529
0.234871
-0.011881
0.901955
0.55129
0.704228
0.460293
0.573971
0.383148
-0.367959
-0.565822
-0.198529
-0.234871
-0.901955
-0.55129
-0.704228
0.16437
-0.034831
-0.308179
-0.209417
-0.106118
-0.171259
-0.208419
-0.772096
-0.576875
-0.299306
-0.795508
-0.753818
-1.050456
-0.149515
-0.445132
-0.375379
-0.383148
-0.460293
-0.573971
-0.865728
-0.670818
-1.214984
-1.060875
-0.957104
-1.101428
-1.216016
-0.874819
-1.138739
-1.543158
-1.427726
-1.364865
-1.292622
-1.314719
-0.720021
-0.956239
-0.751574
-1.209679
-1.114724
-0.898667
-1.193384
-1.229171
-1.449292
-1.472917
-1.56639
-1.437678
-0.592769
-0.673246
-0.676015
-0.424727
-0.198517
-0.520073
-0.556221
-0.119471
-0.345191
-0.210621
-0.579008
-0.619287
0.406723
0.520073
0.078502
0.267715
0.210621
0.304693
0.135175
-0.336481
-0.043071
-0.081588
0.031209
-0.21248
-0.201417
0.086025
0.218136
0.58033
0.96849
0.773292
0.303174
0.01256
0.776518
0.433058
0.619952
1.027564
1.093918
0.167377
0.666121
0.356174
0.865728
1.214984
1.060875
1.101428
1.216016
1.138739
1.543158
1.427726
1.292622
1.314719
0.956239
1.209679
1.114724
1.229171
1.449292
1.472917
1.56639
1.437678
0.079992
0.114748
0.131489
0.355775
0.437808
0.234559
0.228503
0.2664
0.120884
0.088926
-0.239373
0.292028
0.036753
-0.053981
0.099981
0.279368
0.270947
0.373683
-0.58033
-0.96849
-0.773292
-0.303174
-0.01256
-0.776518
-0.433058
-0.619952
-1.027564
-1.093918
-0.031209
0.21248
0.201417
-0.086025
-0.218136
-0.666121
-0.356174
-0.167377
0.556221
0.119471
0.345191
0.579008
0.619287
-0.406723
-0.078502
-0.267715
-0.304693
-0.135175
0.592769
0.673246
0.676015
0.424727
0.198517
0.043071
0.081588
0.336481
        </DataArray>
      </PointData>
      <Polys>
        <DataArray type="Int32" Name="connectivity" format="ascii">
0 162 164
42 163 162
44 164 163
162 163 164
12 165 167
43 166 165
42 167 166
165 166 167
14 168 170
44 169 168
43 170 169
168 169 170
42 166 163
43 169 166
44 163 169
166 169 163
11 171 173
45 172 171
47 173 172
171 172 173
13 174 176
46 175 174
45 176 175
174 175 176
12 177 179
47 178 177
46 179 178
177 178 179
45 175 172
46 178 175
47 172 178
175 178 172
5 180 182
48 181 180
50 182 181
180 181 182
14 183 185
49 184 183
48 185 184
183 184 185
13 186 188
50 187 186
49 188 187
186 187 188
48 184 181
49 187 184
50 181 187
184 187 181
12 179 165
46 189 179
43 165 189
179 189 165
13 188 174
49 190 188
46 174 190
188 190 174
14 170 183
43 191 170
49 183 191
170 191 183
46 190 189
49 191 190
43 189 191
190 191 189
0 164 193
44 192 164
52 193 192
164 192 193
14 194 168
51 195 194
44 168 195
194 195 168
16 196 198
52 197 196
51 198 197
196 197 198
44 195 192
51 197 195
52 192 197
195 197 192
5 199 180
53 200 199
48 180 200
199 200 180
15 201 203
54 202 201
53 203 202
201 202 203
14 185 205
48 204 185
54 205 204
185 204 205
53 202 200
54 204 202
48 200 204
202 204 200
1 206 208
55 207 206
57 208 207
206 207 208
16 209 211
56 210 209
55 211 210
209 210 211
15 212 214
57 213 212
56 214 213
212 213 214
55 210 207
56 213 210
57 207 213
210 213 207
14 205 194
54 215 205
51 194 215
205 215 194
15 214 201
56 216 214
54 201 216
214 216 201
16 198 209
51 217 198
56 209 217
198 217 209
54 216 215
56 217 216
51 215 217
216 217 215
0 193 219
52 218 193
59 219 218
193 218 219
16 220 196
58 221 220
52 196 221
220 221 196
18 222 224
59 223 222
58 224 223
222 223 224
52 221 218
58 223 221
59 218 223
221 223 218
1 225 206
60 226 225
55 206 226
225 226 206
17 227 229
61 228 227
60 229 228
227 228 229
16 211 231
55 230 211
61 231 230
211 230 231
60 228 226
61 230 228
55 226 230
228 230 226
7 232 234
62 233 232
64 234 233
232 233 234
18 235 237
63 236 235
62 237 236
235 236 237
17 238 240
64 239 238
63 240 239
238 239 240
62 236 233
63 239 236
64 233 239
236 239 233
16 231 220
61 241 231
58 220 241
231 241 220
17 240 227
63 242 240
61 227 242
240 242 227
18 224 235
58 243 224
63 235 243
224 243 235
61 242 241
63 243 242
58 241 243
242 243 241
0 219 245
59 244 219
66 245 244
219 244 245
18 246 222
65 247 246
59 222 247
246 247 222
20 248 250
66 249 248
65 250 249
248 249 250
59 247 244
65 249 247
66 244 249
247 249 244
7 251 232
67 252 251
62 232 252
251 252 232
19 253 255
68 254 253
67 255 254
253 254 255
18 237 257
62 256 237
68 257 256
237 256 257
67 254 252
68 256 254
62 252 256
254 256 252
10 258 260
69 259 258
71 260 259
258 259 260
20 261 263
70 262 261
69 263 262
261 262 263
19 264 266
71 265 264
70 266 265
264 265 266
69 262 259
70 265 262
71 259 265
262 265 259
18 257 246
68 267 257
65 246 267
257 267 246
19 266 253
70 268 266
68 253 268
266 268 253
20 250 261
65 269 250
70 261 269
250 269 261
68 268 267
70 269 268
65 267 269
268 269 267
0 245 162
66 270 245
42 162 270
245 270 162
20 271 248
72 272 271
66 248 272
271 272 248
12 167 274
42 273 167
72 274 273
167 273 274
66 272 270
72 273 272
42 270 273
272 273 270
10 275 258
73 276 275
69 258 276
275 276 258
21 277 279
74 278 277
73 279 278
277 278 279
20 263 281
69 280 263
74 281 280
263 280 281
73 278 276
74 280 278
69 276 280
278 280 276
11 173 283
47 282 173
76 283 282
173 282 283
12 284 177
75 285 284
47 177 285
284 285 177
21 286 288
76 287 286
75 288 287
286 287 288
47 285 282
75 287 285
76 282 287
285 287 282
20 281 271
74 289 281
72 271 289
281 289 271
21 288 277
75 290 288
74 277 290
288 290 277
12 274 284
72 291 274
75 284 291
274 291 284
74 290 289
75 291 290
72 289 291
290 291 289
1 208 293
57 292 208
78 293 292
208 292 293
15 294 212
77 295 294
57 212 295
294 295 212
23 296 298
78 297 296
77 298 297
296 297 298
57 295 292
77 297 295
78 292 297
295 297 292
5 299 199
79 300 299
53 199 300
299 300 199
22 301 303
80 302 301
79 303 302
301 302 303
15 203 305
53 304 203
80 305 304
203 304 305
79 302 300
80 304 302
53 300 304
302 304 300
9 306 308
81 307 306
83 308 307
306 307 308
23 309 311
82 310 309
81 311 310
309 310 311
22 312 314
83 313 312
82 314 313
312 313 314
81 310 307
82 313 310
83 307 313
310 313 307
15 305 294
80 315 305
77 294 315
305 315 294
22 314 301
82 316 314
80 301 316
314 316 301
23 298 309
77 317 298
82 309 317
298 317 309
80 316 315
82 317 316
77 315 317
316 317 315
5 182 319
50 318 182
85 319 318
182 318 319
13 320 186
84 321 320
50 186 321
320 321 186
25 322 324
85 323 322
84 324 323
322 323 324
50 321 318
84 323 321
85 318 323
321 323 318
11 325 171
86 326 325
45 171 326
325 326 171
24 327 329
87 328 327
86 329 328
327 328 329
13 176 331
45 330 176
87 331 330
176 330 331
86 328 326
87 330 328
45 326 330
328 330 326
4 332 334
88 333 332
90 334 333
332 333 334
25 335 337
89 336 335
88 337 336
335 336 337
24 338 340
90 339 338
89 340 339
338 339 340
88 336 333
89 339 336
90 333 339
336 339 333
13 331 320
87 341 331
84 320 341
331 341 320
24 340 327
89 342 340
87 327 342
340 342 327
25 324 335
84 343 324
89 335 343
324 343 335
87 342 341
89 343 342
84 341 343
342 343 341
11 283 345
76 344 283
92 345 344
283 344 345
21 346 286
91 347 346
76 286 347
346 347 286
27 348 350
92 349 348
91 350 349
348 349 350
76 347 344
91 349 347
92 344 349
347 349 344
10 351 275
93 352 351
73 275 352
351 352 275
26 353 355
94 354 353
93 355 354
353 354 355
21 279 357
73 356 279
94 357 356
279 356 357
93 354 352
94 356 354
73 352 356
354 356 352
2 358 360
95 359 358
97 360 359
358 359 360
27 361 363
96 362 361
95 363 362
361 362 363
26 364 366
97 365 364
96 366 365
364 365 366
95 362 359
96 365 362
97 359 365
362 365 359
21 357 346
94 367 357
91 346 367
357 367 346
26 366 353
96 368 366
94 353 368
366 368 353
27 350 361
91 369 350
96 361 369
350 369 361
94 368 367
96 369 368
91 367 369
368 369 367
10 260 371
71 370 260
99 371 370
260 370 371
19 372 264
98 373 372
71 264 373
372 373 264
29 374 376
99 375 374
98 376 375
374 375 376
71 373 370
98 375 373
99 370 375
373 375 370
7 377 251
100 378 377
67 251 378
377 378 251
28 379 381
101 380 379
100 381 380
379 380 381
19 255 383
67 382 255
101 383 382
255 382 383
100 380 378
101 382 380
67 378 382
380 382 378
6 384 386
102 385 384
104 386 385
384 385 386
29 387 389
103 388 387
102 389 388
387 388 389
28 390 392
104 391 390
103 392 391
390 391 392
102 388 385
103 391 388
104 385 391
388 391 385
19 383 372
101 393 383
98 372 393
383 393 372
28 392 379
103 394 392
101 379 394
392 394 379
29 376 387
98 395 376
103 387 395
376 395 387
101 394 393
103 395 394
98 393 395
394 395 393
7 234 397
64 396 234
106 397 396
234 396 397
17 398 238
105 399 398
64 238 399
398 399 238
31 400 402
106 401 400
105 402 401
400 401 402
64 399 396
105 401 399
106 396 401
399 401 396
1 403 225
107 404 403
60 225 404
403 404 225
30 405 407
108 406 405
107 407 406
405 406 407
17 229 409
60 408 229
108 409 408
229 408 409
107 406 404
108 408 406
60 404 408
406 408 404
8 410 412
109 411 410
111 412 411
410 411 412
31 413 415
110 414 413
109 415 414
413 414 415
30 416 418
111 417 416
110 418 417
416 417 418
109 414 411
110 417 414
111 411 417
414 417 411
17 409 398
108 419 409
105 398 419
409 419 398
30 418 405
110 420 418
108 405 420
418 420 405
31 402 413
105 421 402
110 413 421
402 421 413
108 420 419
110 421 420
105 419 421
420 421 419
3 422 424
112 423 422
114 424 423
422 423 424
32 425 427
113 426 425
112 427 426
425 426 427
34 428 430
114 429 428
113 430 429
428 429 430
112 426 423
113 429 426
114 423 429
426 429 423
9 431 433
115 432 431
117 433 432
431 432 433
33 434 436
116 435 434
115 436 435
434 435 436
32 437 439
117 438 437
116 439 438
437 438 439
115 435 432
116 438 435
117 432 438
435 438 432
4 440 442
118 441 440
120 442 441
440 441 442
34 443 445
119 444 443
118 445 444
443 444 445
33 446 448
120 447 446
119 448 447
446 447 448
118 444 441
119 447 444
120 441 447
444 447 441
32 439 425
116 449 439
113 425 449
439 449 425
33 448 434
119 450 448
116 434 450
448 450 434
34 430 443
113 451 430
119 443 451
430 451 443
116 450 449
119 451 450
113 449 451
450 451 449
3 424 453
114 452 424
122 453 452
424 452 453
34 454 428
121 455 454
114 428 455
454 455 428
36 456 458
122 457 456
121 458 457
456 457 458
114 455 452
121 457 455
122 452 457
455 457 452
4 459 440
123 460 459
118 440 460
459 460 440
35 461 463
124 462 461
123 463 462
461 462 463
34 445 465
118 464 445
124 465 464
445 464 465
123 462 460
124 464 462
118 460 464
462 464 460
2 466 468
125 467 466
127 468 467
466 467 468
36 469 471
126 470 469
125 471 470
469 470 471
35 472 474
127 473 472
126 474 473
472 473 474
125 470 467
126 473 470
127 467 473
470 473 467
34 465 454
124 475 465
121 454 475
465 475 454
35 474 461
126 476 474
124 461 476
474 476 461
36 458 469
121 477 458
126 469 477
458 477 469
124 476 475
126 477 476
121 475 477
476 477 475
3 453 479
122 478 453
129 479 478
453 478 479
36 480 456
128 481 480
122 456 481
480 481 456
38 482 484
129 483 482
128 484 483
482 483 484
122 481 478
128 483 481
129 478 483
481 483 478
2 485 466
130 486 485
125 466 486
485 486 466
37 487 489
131 488 487
130 489 488
487 488 489
36 471 491
125 490 471
131 491 490
471 490 491
130 488 486
131 490 488
125 486 490
488 490 486
6 492 494
132 493 492
134 494 493
492 493 494
38 495 497
133 496 495
132 497 496
495 496 497
37 498 500
134 499 498
133 500 499
498 499 500
132 496 493
133 499 496
134 493 499
496 499 493
36 491 480
131 501 491
128 480 501
491 501 480
37 500 487
133 502 500
131 487 502
500 502 487
38 484 495
128 503 484
133 495 503
484 503 495
131 502 501
133 503 502
128 501 503
502 503 501
3 479 505
129 504 479
136 505 504
479 504 505
38 506 482
135 507 506
129 482 507
506 507 482
40 508 510
136 509 508
135 510 509
508 509 510
129 507 504
135 509 507
136 504 509
507 509 504
6 511 492
137 512 511
132 492 512
511 512 492
39 513 515
138 514 513
137 515 514
513 514 515
38 497 517
132 516 497
138 517 516
497 516 517
137 514 512
138 516 514
132 512 516
514 516 512
8 518 520
139 519 518
141 520 519
518 519 520
40 521 523
140 522 521
139 523 522
521 522 523
39 524 526
141 525 524
140 526 525
524 525 526
139 522 519
140 525 522
141 519 525
522 525 519
38 517 506
138 527 517
135 506 527
517 527 506
39 526 513
140 528 526
138 513 528
526 528 513
40 510 521
135 529 510
140 521 529
510 529 521
138 528 527
140 529 528
135 527 529
528 529 527
3 505 422
136 530 505
112 422 530
505 530 422
40 531 508
142 532 531
136 508 532
531 532 508
32 427 534
112 533 427
142 534 533
427 533 534
136 532 530
142 533 532
112 530 533
532 533 530
8 535 518
143 536 535
139 518 536
535 536 518
41 537 539
144 538 537
143 539 538
537 538 539
40 523 541
139 540 523
144 541 540
523 540 541
143 538 536
144 540 538
139 536 540
538 540 536
9 433 543
117 542 433
146 543 542
433 542 543
32 544 437
145 545 544
117 437 545
544 545 437
41 546 548
146 547 546
145 548 547
546 547 548
117 545 542
145 547 545
146 542 547
545 547 542
40 541 531
144 549 541
142 531 549
541 549 531
41 548 537
145 550 548
144 537 550
548 550 537
32 534 544
142 551 534
145 544 551
534 551 544
144 550 549
145 551 550
142 549 551
550 551 549
4 442 332
120 552 442
88 332 552
442 552 332
33 553 446
147 554 553
120 446 554
553 554 446
25 337 556
88 555 337
147 556 555
337 555 556
120 554 552
147 555 554
88 552 555
554 555 552
9 308 431
83 557 308
115 431 557
308 557 431
22 558 312
148 559 558
83 312 559
558 559 312
33 436 561
115 560 436
148 561 560
436 560 561
83 559 557
148 560 559
115 557 560
559 560 557
5 319 299
85 562 319
79 299 562
319 562 299
25 563 322
149 564 563
85 322 564
563 564 322
22 303 566
79 565 303
149 566 565
303 565 566
85 564 562
149 565 564
79 562 565
564 565 562
33 561 553
148 567 561
147 553 567
561 567 553
22 566 558
149 568 566
148 558 568
566 568 558
25 556 563
147 569 556
149 563 569
556 569 563
148 568 567
149 569 568
147 567 569
568 569 567
2 468 358
127 570 468
95 358 570
468 570 358
35 571 472
150 572 571
127 472 572
571 572 472
27 363 574
95 573 363
150 574 573
363 573 574
127 572 570
150 573 572
95 570 573
572 573 570
4 334 459
90 575 334
123 459 575
334 575 459
24 576 338
151 577 576
90 338 577
576 577 338
35 463 579
123 578 463
151 579 578
463 578 579
90 577 575
151 578 577
123 575 578
577 578 575
11 345 325
92 580 345
86 325 580
345 580 325
27 581 348
152 582 581
92 348 582
581 582 348
24 329 584
86 583 329
152 584 583
329 583 584
92 582 580
152 583 582
86 580 583
582 583 580
35 579 571
151 585 579
150 571 585
579 585 571
24 584 576
152 586 584
151 576 586
584 586 576
27 574 581
150 587 574
152 581 587
574 587 581
151 586 585
152 587 586
150 585 587
586 587 585
6 494 384
134 588 494
102 384 588
494 588 384
37 589 498
153 590 589
134 498 590
589 590 498
29 389 592
102 591 389
153 592 591
389 591 592
134 590 588
153 591 590
102 588 591
590 591 588
2 360 485
97 593 360
130 485 593
360 593 485
26 594 364
154 595 594
97 364 595
594 595 364
37 489 597
130 596 489
154 597 596
489 596 597
97 595 593
154 596 595
130 593 596
595 596 593
10 371 351
99 598 371
93 351 598
371 598 351
29 599 374
155 600 599
99 374 600
599 600 374
26 355 602
93 601 355
155 602 601
355 601 602
99 600 598
155 601 600
93 598 601
600 601 598
37 597 589
154 603 597
153 589 603
597 603 589
26 602 594
155 604 602
154 594 604
602 604 594
29 592 599
153 605 592
155 599 605
592 605 599
154 604 603
155 605 604
153 603 605
604 605 603
8 520 410
141 606 520
109 410 606
520 606 410
39 607 524
156 608 607
141 524 608
607 608 524
31 415 610
109 609 415
156 610 609
415 609 610
141 608 606
156 609 608
109 606 609
608 609 606
6 386 511
104 611 386
137 511 611
386 611 511
28 612 390
157 613 612
104 390 613
612 613 390
39 515 615
137 614 515
157 615 614
515 614 615
104 613 611
157 614 613
137 611 614
613 614 611
7 397 377
106 616 397
100 377 616
397 616 377
31 617 400
158 618 617
106 400 618
617 618 400
28 381 620
100 619 381
158 620 619
381 619 620
106 618 616
158 619 618
100 616 619
618 619 616
39 615 607
157 621 615
156 607 621
615 621 607
28 620 612
158 622 620
157 612 622
620 622 612
31 610 617
156 623 610
158 617 623
610 623 617
157 622 621
158 623 622
156 621 623
622 623 621
9 543 306
146 624 543
81 306 624
543 624 306
41 625 546
159 626 625
146 546 626
625 626 546
23 311 628
81 627 311
159 628 627
311 627 628
146 626 624
159 627 626
81 624 627
626 627 624
8 412 535
111 629 412
143 535 629
412 629 535
30 630 416
160 631 630
111 416 631
630 631 416
41 539 633
143 632 539
160 633 632
539 632 633
111 631 629
160 632 631
143 629 632
631 632 629
1 293 403
78 634 293
107 403 634
293 634 403
23 635 296
161 636 635
78 296 636
635 636 296
30 407 638
107 637 407
161 638 637
407 637 638
78 636 634
161 637 636
107 634 637
636 637 634
41 633 625
160 639 633
159 625 639
633 639 625
30 638 630
161 640 638
160 630 640
638 640 630
23 628 635
159 641 628
161 635 641
628 641 635
160 640 639
161 641 640
159 639 641
640 641 639
        </DataArray>
        <DataArray type="Int32" Name="offsets" format="ascii">
3
6
9
12
15
18
21
24
27
30
33
36
39
42
45
48
51
54
57
60
63
66
69
72
75
78
81
84
87
90
93
96
99
102
105
108
111
114
117
120
123
126
129
132
135
138
141
144
147
150
153
156
159
162
165
168
171
174
177
180
183
186
189
192
195
198
201
204
207
210
213
216
219
222
225
228
231
234
237
240
243
246
249
252
255
258
261
264
267
270
273
276
279
282
285
288
291
294
297
300
303
306
309
312
315
318
321
324
327
330
333
336
339
342
345
348
351
354
357
360
363
366
369
372
375
378
381
384
387
390
393
396
399
402
405
408
411
414
417
420
423
426
429
432
435
438
441
444
447
450
453
456
459
462
465
468
471
474
477
480
483
486
489
492
495
498
501
504
507
510
513
516
519
522
525
528
531
534
537
540
543
546
549
552
555
558
561
564
567
570
573
576
579
582
585
588
591
594
597
600
603
606
609
612
615
618
621
624
627
630
633
636
639
642
645
648
651
654
657
660
663
666
669
672
675
678
681
684
687
690
693
696
699
702
705
708
711
714
717
720
723
726
729
732
735
738
741
744
747
750
753
756
759
762
765
768
771
774
777
780
783
786
789
792
795
798
801
804
807
810
813
816
819
822
825
828
831
834
837
840
843
846
849
852
855
858
861
864
867
870
873
876
879
882
885
888
891
894
897
900
903
906
909
912
915
918
921
924
927
930
933
936
939
942
945
948
951
954
957
960
963
966
969
972
975
978
981
984
987
990
993
996
999
1002
1005
1008
1011
1014
1017
1020
1023
1026
1029
1032
1035
1038
1041
1044
1047
1050
1053
1056
1059
1062
1065
1068
1071
1074
1077
1080
1083
1086
1089
1092
1095
1098
1101
1104
1107
1110
1113
1116
1119
1122
1125
1128
1131
1134
1137
1140
1143
1146
1149
1152
1155
1158
1161
1164
1167
1170
1173
1176
1179
1182
1185
1188
1191
1194
1197
1200
1203
1206
1209
1212
1215
1218
1221
1224
1227
1230
1233
1236
1239
1242
1245
1248
1251
1254
1257
1260
1263
1266
1269
1272
1275
1278
1281
1284
1287
1290
1293
1296
1299
1302
1305
1308
1311
1314
1317
1320
1323
1326
1329
1332
1335
1338
1341
1344
1347
1350
1353
1356
1359
1362
1365
1368
1371
1374
1377
1380
1383
1386
1389
1392
1395
1398
1401
1404
1407
1410
1413
1416
1419
1422
1425
1428
1431
1434
1437
1440
1443
1446
1449
1452
1455
1458
1461
1464
1467
1470
1473
1476
1479
1482
1485
1488
1491
1494
1497
1500
1503
1506
1509
1512
1515
1518
1521
1524
1527
1530
1533
1536
1539
1542
1545
1548
1551
1554
1557
1560
1563
1566
1569
1572
1575
1578
1581
1584
1587
1590
1593
1596
1599
1602
1605
1608
1611
1614
1617
1620
1623
1626
1629
1632
1635
1638
1641
1644
1647
1650
1653
1656
1659
1662
1665
1668
1671
1674
1677
1680
1683
1686
1689
1692
1695
1698
1701
1704
1707
1710
1713
1716
1719
1722
1725
1728
1731
1734
1737
1740
1743
1746
1749
1752
1755
1758
1761
1764
1767
1770
1773
1776
1779
1782
1785
1788
1791
1794
1797
1800
1803
1806
1809
1812
1815
1818
1821
1824
1827
1830
1833
1836
1839
1842
1845
1848
1851
1854
1857
1860
1863
1866
1869
1872
1875
1878
1881
1884
1887
1890
1893
1896
1899
1902
1905
1908
1911
1914
1917
1920
1923
1926
1929
1932
1935
1938
1941
1944
1947
1950
1953
1956
1959
1962
1965
1968
1971
1974
1977
1980
1983
1986
1989
1992
1995
1998
2001
2004
2007
2010
2013
2016
2019
2022
2025
2028
2031
2034
2037
2040
2043
2046
2049
2052
2055
2058
2061
2064
2067
2070
2073
2076
2079
2082
2085
2088
2091
2094
2097
2100
2103
2106
2109
2112
2115
2118
2121
2124
2127
2130
2133
2136
2139
2142
2145
2148
2151
2154
2157
2160
2163
2166
2169
2172
2175
2178
2181
2184
2187
2190
2193
2196
2199
2202
2205
2208
2211
2214
2217
2220
2223
2226
2229
2232
2235
2238
2241
2244
2247
2250
2253
2256
2259
2262
2265
2268
2271
2274
2277
2280
2283
2286
2289
2292
2295
2298
2301
2304
2307
2310
2313
2316
2319
2322
2325
2328
2331
2334
2337
2340
2343
2346
2349
2352
2355
2358
2361
2364
2367
2370
2373
2376
2379
2382
2385
2388
2391
2394
2397
2400
2403
2406
2409
2412
2415
2418
2421
2424
2427
2430
2433
2436
2439
2442
2445
2448
2451
2454
2457
2460
2463
2466
2469
2472
2475
2478
2481
2484
2487
2490
2493
2496
2499
2502
2505
2508
2511
2514
2517
2520
2523
2526
2529
2532
2535
2538
2541
2544
2547
2550
2553
2556
2559
2562
2565
2568
2571
2574
2577
2580
2583
2586
2589
2592
2595
2598
2601
2604
2607
2610
2613
2616
2619
2622
2625
2628
2631
2634
2637
2640
2643
2646
2649
2652
2655
2658
2661
2664
2667
2670
2673
2676
2679
2682
2685
2688
2691
2694
2697
2700
2703
2706
2709
2712
2715
2718
2721
2724
2727
2730
2733
2736
2739
2742
2745
2748
2751
2754
2757
2760
2763
2766
2769
2772
2775
2778
2781
2784
2787
2790
2793
2796
2799
2802
2805
2808
2811
2814
2817
2820
2823
2826
2829
2832
2835
2838
2841
2844
2847
2850
2853
2856
2859
2862
2865
2868
2871
2874
2877
2880
2883
2886
2889
2892
2895
2898
2901
2904
2907
2910
2913
2916
2919
2922
2925
2928
2931
2934
2937
2940
2943
2946
2949
2952
2955
2958
2961
2964
2967
2970
2973
2976
2979
2982
2985
2988
2991
2994
2997
3000
3003
3006
3009
3012
3015
3018
3021
3024
3027
3030
3033
3036
3039
3042
3045
3048
3051
3054
3057
3060
3063
3066
3069
3072
3075
3078
3081
3084
3087
3090
3093
3096
3099
3102
3105
3108
3111
3114
3117
3120
3123
3126
3129
3132
3135
3138
3141
3144
3147
3150
3153
3156
3159
3162
3165
3168
3171
3174
3177
3180
3183
3186
3189
3192
3195
3198
3201
3204
3207
3210
3213
3216
3219
3222
3225
3228
3231
3234
3237
3240
3243
3246
3249
3252
3255
3258
3261
3264
3267
3270
3273
3276
3279
3282
3285
3288
3291
3294
3297
3300
3303
3306
3309
3312
3315
3318
3321
3324
3327
3330
3333
3336
3339
3342
3345
3348
3351
3354
3357
3360
3363
3366
3369
3372
3375
3378
3381
3384
3387
3390
3393
3396
3399
3402
3405
3408
3411
3414
3417
3420
3423
3426
3429
3432
3435
3438
3441
3444
3447
3450
3453
3456
3459
3462
3465
3468
3471
3474
3477
3480
3483
3486
3489
3492
3495
3498
3501
3504
3507
3510
3513
3516
3519
3522
3525
3528
3531
3534
3537
3540
3543
3546
3549
3552
3555
3558
3561
3564
3567
3570
3573
3576
3579
3582
3585
3588
3591
3594
3597
3600
3603
3606
3609
3612
3615
3618
3621
3624
3627
3630
3633
3636
3639
3642
3645
3648
3651
3654
3657
3660
3663
3666
3669
3672
3675
3678
3681
3684
3687
3690
3693
3696
3699
3702
3705
3708
3711
3714
3717
3720
3723
3726
3729
3732
3735
3738
3741
3744
3747
3750
3753
3756
3759
3762
3765
3768
3771
3774
3777
3780
3783
3786
3789
3792
3795
3798
3801
3804
3807
3810
3813
3816
3819
3822
3825
3828
3831
3834
3837
3840
        </DataArray>
      </Polys>
    </Piece>
  </PolyData>
</VTKFile>
